<svg width="438" height="68" viewBox="0 0 438 68" fill="none" xmlns="http://www.w3.org/2000/svg">
<g clip-path="url(#clip0_3767_8499)">
<mask id="mask0_3767_8499" style="mask-type:luminance" maskUnits="userSpaceOnUse" x="2" y="2" width="64" height="64">
<path d="M34.0002 65.5029C51.4949 65.5029 65.6772 51.3206 65.6772 33.8259C65.6772 16.3312 51.4949 2.14893 34.0002 2.14893C16.5055 2.14893 2.32324 16.3312 2.32324 33.8259C2.32324 51.3206 16.5055 65.5029 34.0002 65.5029Z" fill="white"/>
</mask>
<g mask="url(#mask0_3767_8499)">
<path d="M34.0002 65.5029C51.4949 65.5029 65.6772 51.3206 65.6772 33.8259C65.6772 16.3312 51.4949 2.14893 34.0002 2.14893C16.5055 2.14893 2.32324 16.3312 2.32324 33.8259C2.32324 51.3206 16.5055 65.5029 34.0002 65.5029Z" fill="#DF2132"/>
</g>
<mask id="mask1_3767_8499" style="mask-type:luminance" maskUnits="userSpaceOnUse" x="2" y="2" width="64" height="64">
<path d="M34.0002 65.5029C51.4949 65.5029 65.6772 51.3206 65.6772 33.8259C65.6772 16.3312 51.4949 2.14893 34.0002 2.14893C16.5055 2.14893 2.32324 16.3312 2.32324 33.8259C2.32324 51.3206 16.5055 65.5029 34.0002 65.5029Z" fill="white"/>
</mask>
<g mask="url(#mask1_3767_8499)">
<path d="M61.5546 25.7095C59.7637 25.064 58.3966 25.5009 57.6873 25.8608C57.1236 26.1063 56.546 26.5219 55.9316 27.2132C54.5752 28.7414 54.7756 32.1244 54.6112 34.1722C54.4926 35.6481 54.3715 38.3757 53.2416 39.8229C52.2648 41.073 51.6578 41.6875 50.9296 42.135C50.7038 41.8953 50.2056 40.4537 49.9626 40.2238C50.0722 40.1207 50.1606 40.0267 50.2244 39.9473C50.3414 39.8017 50.4968 39.6233 50.289 39.4049C49.9217 39.0187 50.7308 39.2723 50.4158 38.8821C53.0952 36.8024 54.2684 33.7721 54.2684 30.5773C54.2684 27.4717 52.363 24.5976 49.8162 21.9306C49.8325 21.5992 49.6353 20.1839 49.6452 19.7903C49.7286 16.2601 48.5505 12.626 47.8576 11.7637C47.1646 10.9014 46.8684 10.2559 44.2513 11.1428C42.5348 11.7244 39.5389 14.187 38.2585 15.2522C36.2795 14.7368 34.7177 14.6525 32.6077 14.6525C30.6082 14.6525 29.035 14.9822 27.1287 15.4232C25.8525 14.3179 22.4122 11.5755 20.7743 10.8965C18.2987 9.86976 17.5665 10.3197 16.8547 11.1428C16.1429 11.9658 14.4372 15.7136 14.3357 19.2422C14.3153 19.9401 14.294 20.1969 14.2793 20.4048C11.4665 23.0448 10.2623 27.52 10.2623 30.7491C10.2623 33.7885 11.3111 36.3328 13.8366 38.4542L12.5735 39.674C12.5735 39.674 12.2601 39.9686 12.3812 40.2737C12.3976 40.3155 12.4164 40.4284 12.6806 40.6378C9.46541 43.4669 8.63501 45.9384 8.63501 49.8417C8.63501 54.973 10.8309 59.786 16.0464 62.8204C19.8368 65.4573 25.1129 67.0935 30.9494 67.0935C36.3155 67.0935 41.2078 65.7109 44.9082 63.4381C50.6997 60.4651 54.549 58.6218 54.639 53.2091C55.3516 52.8851 62.1625 48.5212 64.2847 40.4807C66.3676 32.5907 64.2323 26.6749 61.5546 25.7095Z" fill="#A50024"/>
</g>
<mask id="mask2_3767_8499" style="mask-type:luminance" maskUnits="userSpaceOnUse" x="2" y="2" width="64" height="64">
<path d="M34.0002 65.5029C51.4949 65.5029 65.6772 51.3206 65.6772 33.8259C65.6772 16.3312 51.4949 2.14893 34.0002 2.14893C16.5055 2.14893 2.32324 16.3312 2.32324 33.8259C2.32324 51.3206 16.5055 65.5029 34.0002 65.5029Z" fill="white"/>
</mask>
<g mask="url(#mask2_3767_8499)">
<path d="M59.5126 28.0294C58.319 27.9877 57.1891 28.1767 55.8883 29.7131C54.5875 31.2496 55.2551 35.1087 55.0964 37.1687C54.9818 38.6528 54.2971 39.8227 53.2131 41.2782C51.8533 43.1034 50.9059 43.3758 49.9029 44.1318C48.1243 45.471 51.0377 50.5033 51.0377 50.5033L53.7342 52.6869C53.7342 52.6869 60.9206 49.3015 63.5083 39.502C65.5733 31.6807 62.4161 29.1323 61.4966 28.5858C60.9157 28.2422 60.496 28.0638 59.5126 28.0294Z" fill="white"/>
</g>
<mask id="mask3_3767_8499" style="mask-type:luminance" maskUnits="userSpaceOnUse" x="2" y="2" width="64" height="64">
<path d="M34.0002 65.5029C51.4949 65.5029 65.6772 51.3206 65.6772 33.8259C65.6772 16.3312 51.4949 2.14893 34.0002 2.14893C16.5055 2.14893 2.32324 16.3312 2.32324 33.8259C2.32324 51.3206 16.5055 65.5029 34.0002 65.5029Z" fill="white"/>
</mask>
<g mask="url(#mask3_3767_8499)">
<path d="M57.0508 28.693C57.0508 28.693 58.1291 28.1449 59.3841 28.2864C60.3602 28.396 61.7387 28.9998 62.4873 30.1485C64.1996 32.7738 62.7082 38.6234 61.4532 41.9564C59.9691 45.8949 56.659 48.121 55.5741 48.8058C54.4893 49.4906 54.2046 49.4767 54.2046 49.4767C54.2046 49.4767 54.4222 50.3987 54.4615 50.8683C54.5539 51.967 54.5253 52.9234 54.5253 52.9234C54.5253 52.9234 61.3517 49.8914 63.5075 41.3298C65.5054 33.3964 63.8503 29.1724 61.2814 28.2021C58.7133 27.231 57.0508 28.693 57.0508 28.693Z" fill="url(#paint0_linear_3767_8499)"/>
</g>
<mask id="mask4_3767_8499" style="mask-type:luminance" maskUnits="userSpaceOnUse" x="2" y="2" width="64" height="64">
<path d="M34.0002 65.5029C51.4949 65.5029 65.6772 51.3206 65.6772 33.8259C65.6772 16.3312 51.4949 2.14893 34.0002 2.14893C16.5055 2.14893 2.32324 16.3312 2.32324 33.8259C2.32324 51.3206 16.5055 65.5029 34.0002 65.5029Z" fill="white"/>
</mask>
<g mask="url(#mask4_3767_8499)">
<path d="M57.6801 32.8988C57.4167 33.1655 57.2154 33.546 56.9258 34.2733C56.6583 34.9441 56.5486 35.9619 57.8004 36.2916C58.207 36.3988 58.7633 36.5059 59.3417 36.4838C60.3259 36.447 60.8569 36.4012 61.2823 35.8342C61.8885 35.0284 60.7211 32.6477 59.1503 32.4382C58.3649 32.3343 57.9787 32.5961 57.6801 32.8988Z" fill="#E82E68"/>
</g>
<mask id="mask5_3767_8499" style="mask-type:luminance" maskUnits="userSpaceOnUse" x="2" y="2" width="64" height="64">
<path d="M34.0002 65.5029C51.4949 65.5029 65.6772 51.3206 65.6772 33.8259C65.6772 16.3312 51.4949 2.14893 34.0002 2.14893C16.5055 2.14893 2.32324 16.3312 2.32324 33.8259C2.32324 51.3206 16.5055 65.5029 34.0002 65.5029Z" fill="white"/>
</mask>
<g mask="url(#mask5_3767_8499)">
<path d="M57.9803 32.9351C57.7848 33.133 57.635 33.4153 57.4199 33.9553C57.2211 34.4535 56.9887 35.2307 57.8641 35.6283C58.3354 35.8427 58.9522 35.9049 59.277 35.8852C60.0068 35.8402 60.3259 35.6496 60.6539 35.1145C60.9525 34.6278 60.2375 32.7493 59.0717 32.5939C58.4883 32.5154 58.202 32.7101 57.9803 32.9351Z" fill="#FF7D99"/>
</g>
<mask id="mask6_3767_8499" style="mask-type:luminance" maskUnits="userSpaceOnUse" x="2" y="2" width="64" height="64">
<path d="M34.0002 65.5029C51.4949 65.5029 65.6772 51.3206 65.6772 33.8259C65.6772 16.3312 51.4949 2.14893 34.0002 2.14893C16.5055 2.14893 2.32324 16.3312 2.32324 33.8259C2.32324 51.3206 16.5055 65.5029 34.0002 65.5029Z" fill="white"/>
</mask>
<g mask="url(#mask6_3767_8499)">
<path d="M57.6604 31.5955C57.4362 31.3362 57.1891 30.6637 57.4272 30.1237C57.6653 29.5837 58.7043 29.5011 58.9244 30.316C59.1444 31.1308 58.9841 31.6233 58.6364 31.7829C58.2159 31.9759 57.9205 31.8974 57.6604 31.5955Z" fill="#FF7D99"/>
</g>
<mask id="mask7_3767_8499" style="mask-type:luminance" maskUnits="userSpaceOnUse" x="2" y="2" width="64" height="64">
<path d="M34.0002 65.5029C51.4949 65.5029 65.6772 51.3206 65.6772 33.8259C65.6772 16.3312 51.4949 2.14893 34.0002 2.14893C16.5055 2.14893 2.32324 16.3312 2.32324 33.8259C2.32324 51.3206 16.5055 65.5029 34.0002 65.5029Z" fill="white"/>
</mask>
<g mask="url(#mask7_3767_8499)">
<path d="M57.7634 31.1472C57.6047 30.9632 57.4288 30.4862 57.5981 30.1033C57.7667 29.7204 58.5038 29.6615 58.66 30.2399C58.8163 30.8175 58.7026 31.1669 58.4555 31.2806C58.1585 31.4172 57.9483 31.3616 57.7634 31.1472Z" fill="#FF7D99"/>
</g>
<mask id="mask8_3767_8499" style="mask-type:luminance" maskUnits="userSpaceOnUse" x="2" y="2" width="64" height="64">
<path d="M34.0002 65.5029C51.4949 65.5029 65.6772 51.3206 65.6772 33.8259C65.6772 16.3312 51.4949 2.14893 34.0002 2.14893C16.5055 2.14893 2.32324 16.3312 2.32324 33.8259C2.32324 51.3206 16.5055 65.5029 34.0002 65.5029Z" fill="white"/>
</mask>
<g mask="url(#mask8_3767_8499)">
<path d="M59.606 31.4687C59.6125 31.1169 59.8719 30.4469 60.3955 30.2251C60.9191 30.0034 61.7249 30.6948 61.3543 31.4499C60.9829 32.2042 60.546 32.448 60.1901 32.3122C59.7614 32.1486 59.5978 31.8769 59.606 31.4687Z" fill="#FF7D99"/>
</g>
<mask id="mask9_3767_8499" style="mask-type:luminance" maskUnits="userSpaceOnUse" x="2" y="2" width="64" height="64">
<path d="M34.0002 65.5029C51.4949 65.5029 65.6772 51.3206 65.6772 33.8259C65.6772 16.3312 51.4949 2.14893 34.0002 2.14893C16.5055 2.14893 2.32324 16.3312 2.32324 33.8259C2.32324 51.3206 16.5055 65.5029 34.0002 65.5029Z" fill="white"/>
</mask>
<g mask="url(#mask9_3767_8499)">
<path d="M59.8423 31.2748C59.8407 31.0065 60.0198 30.5001 60.4035 30.3414C60.7872 30.1826 61.3967 30.7283 61.1358 31.2969C60.8756 31.8655 60.5565 32.0422 60.2906 31.931C59.9699 31.7976 59.8448 31.5874 59.8423 31.2748Z" fill="#FF7D99"/>
</g>
<mask id="mask10_3767_8499" style="mask-type:luminance" maskUnits="userSpaceOnUse" x="2" y="2" width="64" height="64">
<path d="M34.0002 65.5029C51.4949 65.5029 65.6772 51.3206 65.6772 33.8259C65.6772 16.3312 51.4949 2.14893 34.0002 2.14893C16.5055 2.14893 2.32324 16.3312 2.32324 33.8259C2.32324 51.3206 16.5055 65.5029 34.0002 65.5029Z" fill="white"/>
</mask>
<g mask="url(#mask10_3767_8499)">
<path d="M61.2118 32.8392C61.2945 32.5684 61.6438 32.111 62.1011 32.0619C62.5593 32.0129 63.0371 32.7369 62.5814 33.2343C62.1257 33.7309 61.7314 33.8168 61.4826 33.6286C61.1832 33.402 61.1153 33.1541 61.2118 32.8392Z" fill="#FF7D99"/>
</g>
<mask id="mask11_3767_8499" style="mask-type:luminance" maskUnits="userSpaceOnUse" x="2" y="2" width="64" height="64">
<path d="M34.0002 65.5029C51.4949 65.5029 65.6772 51.3206 65.6772 33.8259C65.6772 16.3312 51.4949 2.14893 34.0002 2.14893C16.5055 2.14893 2.32324 16.3312 2.32324 33.8259C2.32324 51.3206 16.5055 65.5029 34.0002 65.5029Z" fill="white"/>
</mask>
<g mask="url(#mask11_3767_8499)">
<path d="M61.4384 32.7454C61.4957 32.5376 61.7468 32.1874 62.0814 32.1547C62.4161 32.122 62.7719 32.6865 62.4439 33.0661C62.1158 33.4449 61.8278 33.507 61.6446 33.359C61.4237 33.1798 61.3713 32.9875 61.4384 32.7454Z" fill="#FF7D99"/>
</g>
<mask id="mask12_3767_8499" style="mask-type:luminance" maskUnits="userSpaceOnUse" x="2" y="2" width="64" height="64">
<path d="M34.0002 65.5029C51.4949 65.5029 65.6772 51.3206 65.6772 33.8259C65.6772 16.3312 51.4949 2.14893 34.0002 2.14893C16.5055 2.14893 2.32324 16.3312 2.32324 33.8259C2.32324 51.3206 16.5055 65.5029 34.0002 65.5029Z" fill="white"/>
</mask>
<g mask="url(#mask12_3767_8499)">
<path opacity="0.49" d="M55.1242 36.8555C55.1242 36.8555 55.5521 38.0254 58.292 38.5964C61.0319 39.1675 62.8007 37.5116 62.8007 37.5116C62.8007 37.5116 62.0587 41.1932 60.6318 43.6762C58.9277 46.6411 56.6361 47.9566 56.6361 47.9566C56.6361 47.9566 53.5542 45.3312 52.9259 44.9312C52.2984 44.5319 51.3281 43.3898 51.3281 43.3898C51.3281 43.3898 53.0912 41.8583 54.1817 39.9652C55.1529 38.2823 55.1242 36.8555 55.1242 36.8555Z" fill="url(#paint1_linear_3767_8499)"/>
</g>
<mask id="mask13_3767_8499" style="mask-type:luminance" maskUnits="userSpaceOnUse" x="2" y="2" width="64" height="64">
<path d="M34.0002 65.5029C51.4949 65.5029 65.6772 51.3206 65.6772 33.8259C65.6772 16.3312 51.4949 2.14893 34.0002 2.14893C16.5055 2.14893 2.32324 16.3312 2.32324 33.8259C2.32324 51.3206 16.5055 65.5029 34.0002 65.5029Z" fill="white"/>
</mask>
<g mask="url(#mask13_3767_8499)">
<path d="M31.6719 71.7584C44.9555 71.7584 55.724 63.8301 55.724 54.0501C55.724 44.2701 44.9555 36.3418 31.6719 36.3418C18.3883 36.3418 7.61987 44.2701 7.61987 54.0501C7.61987 63.8301 18.3883 71.7584 31.6719 71.7584Z" fill="url(#paint2_linear_3767_8499)"/>
</g>
<mask id="mask14_3767_8499" style="mask-type:luminance" maskUnits="userSpaceOnUse" x="2" y="2" width="64" height="64">
<path d="M34.0002 65.5029C51.4949 65.5029 65.6772 51.3206 65.6772 33.8259C65.6772 16.3312 51.4949 2.14893 34.0002 2.14893C16.5055 2.14893 2.32324 16.3312 2.32324 33.8259C2.32324 51.3206 16.5055 65.5029 34.0002 65.5029Z" fill="white"/>
</mask>
<g mask="url(#mask14_3767_8499)">
<path d="M31.5761 72.2722C43.3673 72.2722 52.9259 65.431 52.9259 56.992C52.9259 48.5531 43.3673 41.7119 31.5761 41.7119C19.7849 41.7119 10.2263 48.5531 10.2263 56.992C10.2263 65.431 19.7849 72.2722 31.5761 72.2722Z" fill="white"/>
</g>
<mask id="mask15_3767_8499" style="mask-type:luminance" maskUnits="userSpaceOnUse" x="2" y="2" width="64" height="64">
<path d="M34.0002 65.5029C51.4949 65.5029 65.6772 51.3206 65.6772 33.8259C65.6772 16.3312 51.4949 2.14893 34.0002 2.14893C16.5055 2.14893 2.32324 16.3312 2.32324 33.8259C2.32324 51.3206 16.5055 65.5029 34.0002 65.5029Z" fill="white"/>
</mask>
<g mask="url(#mask15_3767_8499)">
<path d="M15.4846 39.7949L14.0537 41.4344C14.0537 41.4344 13.8442 41.6185 13.9604 41.9253C14.0766 42.2321 20.4898 47.7209 32.7282 47.6726C44.0093 47.6285 49.5161 43.6884 50.4119 42.5185C50.524 42.372 50.6729 42.1928 50.4741 41.9728C49.9783 41.4271 49.0449 40.1942 49.0449 40.1942C49.0449 40.1942 44.0633 44.6186 32.0467 44.8362C22.6955 45.0064 15.4846 39.7949 15.4846 39.7949Z" fill="#A00F00"/>
</g>
<mask id="mask16_3767_8499" style="mask-type:luminance" maskUnits="userSpaceOnUse" x="2" y="2" width="64" height="64">
<path d="M34.0002 65.5029C51.4949 65.5029 65.6772 51.3206 65.6772 33.8259C65.6772 16.3312 51.4949 2.14893 34.0002 2.14893C16.5055 2.14893 2.32324 16.3312 2.32324 33.8259C2.32324 51.3206 16.5055 65.5029 34.0002 65.5029Z" fill="white"/>
</mask>
<g mask="url(#mask16_3767_8499)">
<path d="M16.7688 40.3799L15.7413 41.5784C15.7413 41.5784 15.5351 41.7625 15.6496 42.0693C15.7642 42.3761 20.5567 46.9347 32.6454 46.8864C43.7874 46.8423 48.0138 43.8921 48.8991 42.723C49.0095 42.5765 49.1576 42.3974 48.9604 42.1773C48.4712 41.6316 48.1472 41.2782 48.1472 41.2782C48.1472 41.2782 43.8799 44.6988 32.0113 44.9172C22.7739 45.0874 16.7688 40.3799 16.7688 40.3799Z" fill="#DF2132"/>
</g>
<mask id="mask17_3767_8499" style="mask-type:luminance" maskUnits="userSpaceOnUse" x="2" y="2" width="64" height="64">
<path d="M34.0002 65.5029C51.4949 65.5029 65.6772 51.3206 65.6772 33.8259C65.6772 16.3312 51.4949 2.14893 34.0002 2.14893C16.5055 2.14893 2.32324 16.3312 2.32324 33.8259C2.32324 51.3206 16.5055 65.5029 34.0002 65.5029Z" fill="white"/>
</mask>
<g mask="url(#mask17_3767_8499)">
<path d="M32.8631 60.5377C36.5049 60.5377 39.4572 57.7682 39.4572 54.3519C39.4572 50.9355 36.5049 48.166 32.8631 48.166C29.2213 48.166 26.269 50.9355 26.269 54.3519C26.269 57.7682 29.2213 60.5377 32.8631 60.5377Z" fill="#A00F00"/>
</g>
<mask id="mask18_3767_8499" style="mask-type:luminance" maskUnits="userSpaceOnUse" x="2" y="2" width="64" height="64">
<path d="M34.0002 65.5029C51.4949 65.5029 65.6772 51.3206 65.6772 33.8259C65.6772 16.3312 51.4949 2.14893 34.0002 2.14893C16.5055 2.14893 2.32324 16.3312 2.32324 33.8259C2.32324 51.3206 16.5055 65.5029 34.0002 65.5029Z" fill="white"/>
</mask>
<g mask="url(#mask18_3767_8499)">
<path d="M32.8393 59.4724C36.0519 59.4724 38.6562 57.0292 38.6562 54.0155C38.6562 51.0017 36.0519 48.5586 32.8393 48.5586C29.6268 48.5586 27.0225 51.0017 27.0225 54.0155C27.0225 57.0292 29.6268 59.4724 32.8393 59.4724Z" fill="#F4223C"/>
</g>
<mask id="mask19_3767_8499" style="mask-type:luminance" maskUnits="userSpaceOnUse" x="2" y="2" width="64" height="64">
<path d="M34.0002 65.5029C51.4949 65.5029 65.6772 51.3206 65.6772 33.8259C65.6772 16.3312 51.4949 2.14893 34.0002 2.14893C16.5055 2.14893 2.32324 16.3312 2.32324 33.8259C2.32324 51.3206 16.5055 65.5029 34.0002 65.5029Z" fill="white"/>
</mask>
<g mask="url(#mask19_3767_8499)">
<path d="M32.8393 59.1524C35.8639 59.1524 38.3159 56.8525 38.3159 54.0154C38.3159 51.1783 35.8639 48.8784 32.8393 48.8784C29.8147 48.8784 27.3628 51.1783 27.3628 54.0154C27.3628 56.8525 29.8147 59.1524 32.8393 59.1524Z" stroke="white" stroke-width="0.409521" stroke-miterlimit="10"/>
</g>
<mask id="mask20_3767_8499" style="mask-type:luminance" maskUnits="userSpaceOnUse" x="2" y="2" width="64" height="64">
<path d="M34.0002 65.5029C51.4949 65.5029 65.6772 51.3206 65.6772 33.8259C65.6772 16.3312 51.4949 2.14893 34.0002 2.14893C16.5055 2.14893 2.32324 16.3312 2.32324 33.8259C2.32324 51.3206 16.5055 65.5029 34.0002 65.5029Z" fill="white"/>
</mask>
<g mask="url(#mask20_3767_8499)">
<path d="M32.6184 50.1858C33.1873 50.1858 33.6484 49.7532 33.6484 49.2196C33.6484 48.686 33.1873 48.2534 32.6184 48.2534C32.0495 48.2534 31.5884 48.686 31.5884 49.2196C31.5884 49.7532 32.0495 50.1858 32.6184 50.1858Z" fill="#A00F00"/>
</g>
<mask id="mask21_3767_8499" style="mask-type:luminance" maskUnits="userSpaceOnUse" x="2" y="2" width="64" height="64">
<path d="M34.0002 65.5029C51.4949 65.5029 65.6772 51.3206 65.6772 33.8259C65.6772 16.3312 51.4949 2.14893 34.0002 2.14893C16.5055 2.14893 2.32324 16.3312 2.32324 33.8259C2.32324 51.3206 16.5055 65.5029 34.0002 65.5029Z" fill="white"/>
</mask>
<g mask="url(#mask21_3767_8499)">
<path d="M31.5957 44.7485L31.9328 49.0061C31.9328 49.0061 32.0669 49.6205 32.6666 49.582C33.2663 49.5436 33.2892 48.9185 33.2892 48.9185L33.3277 44.5947L31.5957 44.7485Z" fill="#B4BFC1"/>
</g>
<mask id="mask22_3767_8499" style="mask-type:luminance" maskUnits="userSpaceOnUse" x="2" y="2" width="64" height="64">
<path d="M34.0002 65.5029C51.4949 65.5029 65.6772 51.3206 65.6772 33.8259C65.6772 16.3312 51.4949 2.14893 34.0002 2.14893C16.5055 2.14893 2.32324 16.3312 2.32324 33.8259C2.32324 51.3206 16.5055 65.5029 34.0002 65.5029Z" fill="white"/>
</mask>
<g mask="url(#mask22_3767_8499)">
<path d="M53.3857 32.4506C53.3857 40.5157 43.5158 45.3762 32.6798 45.3762C21.8437 45.3762 11.5664 40.0248 11.5664 31.9597C11.5664 23.8947 21.8445 16.1699 32.6798 16.1699C43.515 16.1699 53.3857 24.3855 53.3857 32.4506Z" fill="url(#paint3_radial_3767_8499)"/>
</g>
<mask id="mask23_3767_8499" style="mask-type:luminance" maskUnits="userSpaceOnUse" x="2" y="2" width="64" height="64">
<path d="M34.0002 65.5029C51.4949 65.5029 65.6772 51.3206 65.6772 33.8259C65.6772 16.3312 51.4949 2.14893 34.0002 2.14893C16.5055 2.14893 2.32324 16.3312 2.32324 33.8259C2.32324 51.3206 16.5055 65.5029 34.0002 65.5029Z" fill="white"/>
</mask>
<g mask="url(#mask23_3767_8499)">
<path d="M37.5337 17.9397C37.5337 17.9397 41.0246 14.556 43.5346 13.6634C46.0455 12.7716 47.1213 13.4703 47.7856 14.3367C48.4499 15.2031 49.5806 18.8585 49.5004 22.4083C49.4677 23.8638 49.3801 24.8815 49.2893 25.5761C49.2034 26.2306 48.4508 25.9075 47.8846 25.5679L42.7779 20.2362L38.3485 20.4882L37.5337 17.9397Z" fill="url(#paint4_radial_3767_8499)"/>
</g>
<mask id="mask24_3767_8499" style="mask-type:luminance" maskUnits="userSpaceOnUse" x="2" y="2" width="64" height="64">
<path d="M34.0002 65.5029C51.4949 65.5029 65.6772 51.3206 65.6772 33.8259C65.6772 16.3312 51.4949 2.14893 34.0002 2.14893C16.5055 2.14893 2.32324 16.3312 2.32324 33.8259C2.32324 51.3206 16.5055 65.5029 34.0002 65.5029Z" fill="white"/>
</mask>
<g mask="url(#mask24_3767_8499)">
<path d="M37.3308 17.9847C37.3308 17.9847 41.212 14.8725 43.4038 14.0912C45.5955 13.3091 46.5347 13.9211 47.1148 14.6795C47.6948 15.4379 48.6798 18.6367 48.6095 21.7448C48.5383 24.8529 48.1857 25.6833 48.1857 25.6833C48.1857 25.6833 44.3945 21.8953 42.6977 20.8931C39.7124 19.1301 37.3308 17.9847 37.3308 17.9847Z" fill="white"/>
</g>
<mask id="mask25_3767_8499" style="mask-type:luminance" maskUnits="userSpaceOnUse" x="2" y="2" width="64" height="64">
<path d="M34.0002 65.5029C51.4949 65.5029 65.6772 51.3206 65.6772 33.8259C65.6772 16.3312 51.4949 2.14893 34.0002 2.14893C16.5055 2.14893 2.32324 16.3312 2.32324 33.8259C2.32324 51.3206 16.5055 65.5029 34.0002 65.5029Z" fill="white"/>
</mask>
<g mask="url(#mask25_3767_8499)">
<path d="M51.2144 31.4615C51.2144 38.1816 41.864 42.2493 32.8352 42.2493C23.8064 42.2493 13.6011 37.7815 13.6011 31.0623C13.6011 24.343 23.6967 17.4609 32.7247 17.4609C41.7528 17.4609 51.2144 24.7414 51.2144 31.4615Z" fill="white"/>
</g>
<mask id="mask26_3767_8499" style="mask-type:luminance" maskUnits="userSpaceOnUse" x="2" y="2" width="64" height="64">
<path d="M34.0002 65.5029C51.4949 65.5029 65.6772 51.3206 65.6772 33.8259C65.6772 16.3312 51.4949 2.14893 34.0002 2.14893C16.5055 2.14893 2.32324 16.3312 2.32324 33.8259C2.32324 51.3206 16.5055 65.5029 34.0002 65.5029Z" fill="white"/>
</mask>
<g mask="url(#mask26_3767_8499)">
<path d="M35.6538 26.4659C35.6538 26.4659 36.4008 24.1874 39.3902 23.5149C42.3796 22.8424 45.2856 24.6726 45.7012 25.7189C46.116 26.7645 45.1203 26.7645 42.7118 25.9987C40.9888 25.4506 38.7128 26.3415 37.8537 27.0631C36.899 27.8665 36.3173 28.0342 35.6947 27.5859C35.0721 27.1376 35.6538 26.4659 35.6538 26.4659Z" fill="url(#paint5_linear_3767_8499)"/>
</g>
<mask id="mask27_3767_8499" style="mask-type:luminance" maskUnits="userSpaceOnUse" x="2" y="2" width="64" height="64">
<path d="M34.0002 65.5029C51.4949 65.5029 65.6772 51.3206 65.6772 33.8259C65.6772 16.3312 51.4949 2.14893 34.0002 2.14893C16.5055 2.14893 2.32324 16.3312 2.32324 33.8259C2.32324 51.3206 16.5055 65.5029 34.0002 65.5029Z" fill="white"/>
</mask>
<g mask="url(#mask27_3767_8499)">
<path d="M29.1748 26.3149C29.1748 26.3149 28.4295 24.1444 25.4474 23.5046C22.4654 22.864 19.5659 24.6075 19.152 25.6039C18.738 26.6004 19.8973 26.3329 22.134 25.8706C23.9061 25.5041 26.124 26.1971 26.9798 26.8843C27.9321 27.6492 28.5121 27.8096 29.1339 27.3825C29.7557 26.9555 29.1748 26.3149 29.1748 26.3149Z" fill="url(#paint6_linear_3767_8499)"/>
</g>
<mask id="mask28_3767_8499" style="mask-type:luminance" maskUnits="userSpaceOnUse" x="2" y="2" width="64" height="64">
<path d="M34.0002 65.5029C51.4949 65.5029 65.6772 51.3206 65.6772 33.8259C65.6772 16.3312 51.4949 2.14893 34.0002 2.14893C16.5055 2.14893 2.32324 16.3312 2.32324 33.8259C2.32324 51.3206 16.5055 65.5029 34.0002 65.5029Z" fill="white"/>
</mask>
<g mask="url(#mask28_3767_8499)">
<path d="M36.2002 26.9258C36.2002 26.9258 37.2842 25.2412 40.1026 24.9091C43.4799 24.5107 45.058 26.295 45.058 26.295C45.058 26.295 45.3067 26.538 45.0785 26.6312C44.9639 26.6779 44.8191 26.6312 44.7021 26.5732C44.4518 26.448 44.1941 26.3351 43.9225 26.2541C43.1338 26.0201 41.6685 25.6814 40.3873 25.9219C37.942 26.3801 37.0658 27.64 37.0658 27.64C37.0658 27.64 36.6992 28.036 36.2975 27.7897C35.7846 27.4739 36.2002 26.9258 36.2002 26.9258Z" fill="#362F3F"/>
</g>
<mask id="mask29_3767_8499" style="mask-type:luminance" maskUnits="userSpaceOnUse" x="2" y="2" width="64" height="64">
<path d="M34.0002 65.5029C51.4949 65.5029 65.6772 51.3206 65.6772 33.8259C65.6772 16.3312 51.4949 2.14893 34.0002 2.14893C16.5055 2.14893 2.32324 16.3312 2.32324 33.8259C2.32324 51.3206 16.5055 65.5029 34.0002 65.5029Z" fill="white"/>
</mask>
<g mask="url(#mask29_3767_8499)">
<path d="M28.7634 26.8539C28.7634 26.8539 27.6908 25.2291 24.9018 24.9076C21.5606 24.5231 19.9988 26.2444 19.9988 26.2444C19.9988 26.2444 19.7526 26.4784 19.9784 26.5684C20.0913 26.6134 20.2353 26.5684 20.3506 26.5119C20.5985 26.3908 20.8529 26.282 21.1221 26.2043C21.9026 25.9785 23.3523 25.6521 24.6204 25.8836C27.0404 26.3254 27.9068 27.5411 27.9068 27.5411C27.9068 27.5411 28.2693 27.9232 28.6669 27.6851C29.1741 27.3824 28.7634 26.8539 28.7634 26.8539Z" fill="#362F3F"/>
</g>
<mask id="mask30_3767_8499" style="mask-type:luminance" maskUnits="userSpaceOnUse" x="2" y="2" width="64" height="64">
<path d="M34.0002 65.5029C51.4949 65.5029 65.6772 51.3206 65.6772 33.8259C65.6772 16.3312 51.4949 2.14893 34.0002 2.14893C16.5055 2.14893 2.32324 16.3312 2.32324 33.8259C2.32324 51.3206 16.5055 65.5029 34.0002 65.5029Z" fill="white"/>
</mask>
<g mask="url(#mask30_3767_8499)">
<path d="M28.0631 17.8241C28.0631 17.8241 24.537 14.3365 22.162 13.304C19.787 12.2715 18.7169 12.908 18.0338 13.736C17.3506 14.5639 16.0833 18.1481 15.986 21.6963C15.9516 22.9595 15.9124 22.7869 15.9124 23.4708C15.9124 24.4984 16.8687 24.8126 17.3375 24.3168C17.3375 24.3168 21.4453 21.5638 23.0881 20.8528C23.9512 20.479 26.8245 20.411 26.8245 20.411L28.0631 17.8241Z" fill="url(#paint7_linear_3767_8499)"/>
</g>
<mask id="mask31_3767_8499" style="mask-type:luminance" maskUnits="userSpaceOnUse" x="2" y="2" width="64" height="64">
<path d="M34.0002 65.5029C51.4949 65.5029 65.6772 51.3206 65.6772 33.8259C65.6772 16.3312 51.4949 2.14893 34.0002 2.14893C16.5055 2.14893 2.32324 16.3312 2.32324 33.8259C2.32324 51.3206 16.5055 65.5029 34.0002 65.5029Z" fill="white"/>
</mask>
<g mask="url(#mask31_3767_8499)">
<path d="M27.6688 17.4771C27.6688 17.4771 24.1582 14.6317 21.9657 13.8495C19.7739 13.0674 18.8347 13.6794 18.2547 14.4378C17.6746 15.1962 16.6896 18.395 16.7599 21.5031C16.8303 24.6112 16.6348 24.5972 16.6348 24.5972C16.6348 24.5972 20.426 20.8093 22.1227 19.8071C25.1089 18.0449 27.6688 17.4771 27.6688 17.4771Z" fill="white"/>
</g>
<mask id="mask32_3767_8499" style="mask-type:luminance" maskUnits="userSpaceOnUse" x="2" y="2" width="64" height="64">
<path d="M34.0002 65.5029C51.4949 65.5029 65.6772 51.3206 65.6772 33.8259C65.6772 16.3312 51.4949 2.14893 34.0002 2.14893C16.5055 2.14893 2.32324 16.3312 2.32324 33.8259C2.32324 51.3206 16.5055 65.5029 34.0002 65.5029Z" fill="white"/>
</mask>
<g mask="url(#mask32_3767_8499)">
<path d="M45.0081 30.923C45.0081 30.923 46.0258 30.5287 47.1139 30.2415C48.2012 29.9535 50.4543 29.8193 50.4543 29.8193" stroke="#817493" stroke-width="0.418086" stroke-miterlimit="10" stroke-linecap="round" stroke-linejoin="round"/>
</g>
<mask id="mask33_3767_8499" style="mask-type:luminance" maskUnits="userSpaceOnUse" x="2" y="2" width="64" height="64">
<path d="M34.0002 65.5029C51.4949 65.5029 65.6772 51.3206 65.6772 33.8259C65.6772 16.3312 51.4949 2.14893 34.0002 2.14893C16.5055 2.14893 2.32324 16.3312 2.32324 33.8259C2.32324 51.3206 16.5055 65.5029 34.0002 65.5029Z" fill="white"/>
</mask>
<g mask="url(#mask33_3767_8499)">
<path d="M46.282 33.1606C46.282 33.1606 47.1926 33.4282 48.2111 33.8569C49.2477 34.2937 49.4432 34.4999 49.4432 34.4999" stroke="#817493" stroke-width="0.418086" stroke-miterlimit="10" stroke-linecap="round" stroke-linejoin="round"/>
</g>
<mask id="mask34_3767_8499" style="mask-type:luminance" maskUnits="userSpaceOnUse" x="2" y="2" width="64" height="64">
<path d="M34.0002 65.5029C51.4949 65.5029 65.6772 51.3206 65.6772 33.8259C65.6772 16.3312 51.4949 2.14893 34.0002 2.14893C16.5055 2.14893 2.32324 16.3312 2.32324 33.8259C2.32324 51.3206 16.5055 65.5029 34.0002 65.5029Z" fill="white"/>
</mask>
<g mask="url(#mask34_3767_8499)">
<path d="M45.9824 32.0472C45.9824 32.0472 47.0697 31.9785 48.1946 31.9826C49.8104 31.9883 50.9157 32.3295 50.9157 32.3295" stroke="#817493" stroke-width="0.418086" stroke-miterlimit="10" stroke-linecap="round" stroke-linejoin="round"/>
</g>
<mask id="mask35_3767_8499" style="mask-type:luminance" maskUnits="userSpaceOnUse" x="2" y="2" width="64" height="64">
<path d="M34.0002 65.5029C51.4949 65.5029 65.6772 51.3206 65.6772 33.8259C65.6772 16.3312 51.4949 2.14893 34.0002 2.14893C16.5055 2.14893 2.32324 16.3312 2.32324 33.8259C2.32324 51.3206 16.5055 65.5029 34.0002 65.5029Z" fill="white"/>
</mask>
<g mask="url(#mask35_3767_8499)">
<path d="M20.1264 30.587C20.1264 30.587 19.0948 30.1927 17.9927 29.9056C16.8907 29.6184 14.6082 29.4834 14.6082 29.4834" stroke="#817493" stroke-width="0.420827" stroke-miterlimit="10" stroke-linecap="round" stroke-linejoin="round"/>
</g>
<mask id="mask36_3767_8499" style="mask-type:luminance" maskUnits="userSpaceOnUse" x="2" y="2" width="64" height="64">
<path d="M34.0002 65.5029C51.4949 65.5029 65.6772 51.3206 65.6772 33.8259C65.6772 16.3312 51.4949 2.14893 34.0002 2.14893C16.5055 2.14893 2.32324 16.3312 2.32324 33.8259C2.32324 51.3206 16.5055 65.5029 34.0002 65.5029Z" fill="white"/>
</mask>
<g mask="url(#mask36_3767_8499)">
<path d="M18.8355 32.8247C18.8355 32.8247 17.9127 33.0922 16.881 33.5209C15.8306 33.9578 15.6326 34.164 15.6326 34.164" stroke="#817493" stroke-width="0.420827" stroke-miterlimit="10" stroke-linecap="round" stroke-linejoin="round"/>
</g>
<mask id="mask37_3767_8499" style="mask-type:luminance" maskUnits="userSpaceOnUse" x="2" y="2" width="64" height="64">
<path d="M34.0002 65.5029C51.4949 65.5029 65.6772 51.3206 65.6772 33.8259C65.6772 16.3312 51.4949 2.14893 34.0002 2.14893C16.5055 2.14893 2.32324 16.3312 2.32324 33.8259C2.32324 51.3206 16.5055 65.5029 34.0002 65.5029Z" fill="white"/>
</mask>
<g mask="url(#mask37_3767_8499)">
<path d="M19.1389 31.7118C19.1389 31.7118 18.0377 31.6431 16.8972 31.6471C15.2601 31.6529 14.1401 31.994 14.1401 31.994" stroke="#817493" stroke-width="0.420827" stroke-miterlimit="10" stroke-linecap="round" stroke-linejoin="round"/>
</g>
<mask id="mask38_3767_8499" style="mask-type:luminance" maskUnits="userSpaceOnUse" x="2" y="2" width="64" height="64">
<path d="M34.0002 65.5029C51.4949 65.5029 65.6772 51.3206 65.6772 33.8259C65.6772 16.3312 51.4949 2.14893 34.0002 2.14893C16.5055 2.14893 2.32324 16.3312 2.32324 33.8259C2.32324 51.3206 16.5055 65.5029 34.0002 65.5029Z" fill="white"/>
</mask>
<g mask="url(#mask38_3767_8499)">
<path d="M40.4569 18.9141C40.191 18.8356 40.1558 18.5836 40.3767 18.4118C41.3298 17.6698 43.2549 16.3902 44.649 15.9779C46.5405 15.4175 46.781 17.6166 46.8497 19.2455C46.8931 20.2747 46.826 21.3251 46.6754 22.3126C46.5814 22.9287 45.9121 23.197 45.3493 22.473C44.8764 21.8651 44.3732 21.3399 43.3023 20.6207C42.1128 19.8239 41.068 19.0933 40.4569 18.9141Z" fill="#FF7D99"/>
</g>
<mask id="mask39_3767_8499" style="mask-type:luminance" maskUnits="userSpaceOnUse" x="2" y="2" width="64" height="64">
<path d="M34.0002 65.5029C51.4949 65.5029 65.6772 51.3206 65.6772 33.8259C65.6772 16.3312 51.4949 2.14893 34.0002 2.14893C16.5055 2.14893 2.32324 16.3312 2.32324 33.8259C2.32324 51.3206 16.5055 65.5029 34.0002 65.5029Z" fill="white"/>
</mask>
<g mask="url(#mask39_3767_8499)">
<path d="M46.2402 16.4864C46.1093 16.2001 45.8434 15.9947 45.5309 15.9538C45.1963 15.9096 44.7267 15.9129 44.1982 16.1068C43.3727 16.4087 41.2309 17.7553 40.3636 18.31C40.1927 18.4196 40.0855 18.7436 40.4365 18.8942C41.1826 19.214 42.5603 20.0665 43.3015 20.622C44.2923 21.3641 44.2506 21.2814 44.2506 21.2814C44.2506 21.2814 44.7905 20.5517 45.2683 19.165C45.589 18.2339 45.7305 17.4461 45.2151 17.5573C44.6997 17.6686 44.0256 18.3206 43.6345 18.6291C42.935 19.1805 42.5922 19.5429 42.5922 19.5429C42.5922 19.5429 41.2873 19.0529 41.5098 18.6299C41.7324 18.2077 44.6858 16.3203 45.2119 16.2647C46.0079 16.1813 46.2402 16.4864 46.2402 16.4864Z" fill="#D11D05"/>
</g>
<mask id="mask40_3767_8499" style="mask-type:luminance" maskUnits="userSpaceOnUse" x="2" y="2" width="64" height="64">
<path d="M34.0002 65.5029C51.4949 65.5029 65.6772 51.3206 65.6772 33.8259C65.6772 16.3312 51.4949 2.14893 34.0002 2.14893C16.5055 2.14893 2.32324 16.3312 2.32324 33.8259C2.32324 51.3206 16.5055 65.5029 34.0002 65.5029Z" fill="white"/>
</mask>
<g mask="url(#mask40_3767_8499)">
<path d="M25.1521 18.9141C25.418 18.8356 25.4532 18.5836 25.2323 18.4118C24.2792 17.6698 22.3542 16.3902 20.9601 15.9779C19.0686 15.4175 18.828 17.6166 18.7593 19.2455C18.716 20.2747 18.783 21.3251 18.9336 22.3126C19.0277 22.9287 19.6969 23.197 20.2598 22.473C20.7326 21.8651 21.2358 21.3399 22.3067 20.6207C23.4963 19.8239 24.541 19.0933 25.1521 18.9141Z" fill="#FF7D99"/>
</g>
<mask id="mask41_3767_8499" style="mask-type:luminance" maskUnits="userSpaceOnUse" x="2" y="2" width="64" height="64">
<path d="M34.0002 65.5029C51.4949 65.5029 65.6772 51.3206 65.6772 33.8259C65.6772 16.3312 51.4949 2.14893 34.0002 2.14893C16.5055 2.14893 2.32324 16.3312 2.32324 33.8259C2.32324 51.3206 16.5055 65.5029 34.0002 65.5029Z" fill="white"/>
</mask>
<g mask="url(#mask41_3767_8499)">
<path d="M19.3689 16.4864C19.4998 16.2001 19.7657 15.9947 20.0782 15.9538C20.4128 15.9096 20.8824 15.9129 21.4109 16.1068C22.2364 16.4087 24.3783 17.7553 25.2455 18.31C25.4165 18.4196 25.5237 18.7436 25.1727 18.8942C24.4265 19.214 23.0488 20.0665 22.3076 20.622C21.3169 21.3641 21.3586 21.2814 21.3586 21.2814C21.3586 21.2814 20.8186 20.5517 20.3408 19.165C20.0201 18.2339 19.8786 17.4461 20.394 17.5573C20.9094 17.6686 21.5836 18.3206 21.9746 18.6291C22.6741 19.1805 23.0169 19.5429 23.0169 19.5429C23.0169 19.5429 24.3218 19.0529 24.0993 18.6299C23.8768 18.2077 20.9233 16.3203 20.3973 16.2647C19.6012 16.1813 19.3689 16.4864 19.3689 16.4864Z" fill="#D11D05"/>
</g>
<mask id="mask42_3767_8499" style="mask-type:luminance" maskUnits="userSpaceOnUse" x="2" y="2" width="64" height="64">
<path d="M34.0002 65.5029C51.4949 65.5029 65.6772 51.3206 65.6772 33.8259C65.6772 16.3312 51.4949 2.14893 34.0002 2.14893C16.5055 2.14893 2.32324 16.3312 2.32324 33.8259C2.32324 51.3206 16.5055 65.5029 34.0002 65.5029Z" fill="white"/>
</mask>
<g mask="url(#mask42_3767_8499)">
<path d="M41.6687 32.76C41.6989 32.5955 41.8151 31.6048 41.1262 31.8183C40.9626 31.869 40.7565 32.139 40.6395 32.3141C40.0848 33.1453 39.4704 33.4398 38.622 33.5609C37.5216 33.718 36.4114 33.4415 35.005 32.3321C33.8711 31.4371 33.224 31.0861 32.8002 31.1278C32.3764 31.0861 31.7726 31.3086 30.6387 32.2036C29.2323 33.3138 28.0984 33.6411 26.998 33.484C26.1497 33.3629 25.316 32.917 24.992 32.3149C24.8922 32.1292 24.9167 31.8903 24.5167 31.8191C24.38 31.7946 24.1346 31.9508 24.1739 32.5472C24.2025 32.9751 23.9145 34.9313 26.1006 35.6291C28.2383 36.3114 31.0404 33.4112 32.0508 33.0177C32.3854 32.8876 32.8092 32.535 32.8092 32.535C33.0374 32.5587 33.5668 32.6372 33.9022 32.7673C34.9134 33.1608 37.2017 36.0693 39.3427 35.4009C41.0837 34.856 41.5345 33.4873 41.6687 32.76Z" fill="url(#paint8_linear_3767_8499)"/>
</g>
<mask id="mask43_3767_8499" style="mask-type:luminance" maskUnits="userSpaceOnUse" x="2" y="2" width="64" height="64">
<path d="M34.0002 65.5029C51.4949 65.5029 65.6772 51.3206 65.6772 33.8259C65.6772 16.3312 51.4949 2.14893 34.0002 2.14893C16.5055 2.14893 2.32324 16.3312 2.32324 33.8259C2.32324 51.3206 16.5055 65.5029 34.0002 65.5029Z" fill="white"/>
</mask>
<g mask="url(#mask43_3767_8499)">
<path d="M32.6046 32.4735C32.6046 32.4735 33.6158 32.1348 35.3101 33.0945C36.7165 33.8913 37.8373 34.4779 38.9369 34.365C39.7853 34.2783 40.3154 33.5191 40.5134 33.1763C40.5944 33.0364 40.6844 32.8556 40.8488 32.8883C40.983 32.9145 41.0926 32.939 41.1049 33.0593C41.1344 33.3702 40.9126 34.8518 39.1717 35.2429C37.0315 35.7231 35.1318 33.4896 34.1214 33.2074C33.1102 32.9251 32.5408 33.0086 32.5408 33.0086L32.6046 32.4735Z" fill="#362F3F"/>
<path d="M33.2484 32.4735C33.2484 32.4735 32.2372 32.1348 30.5428 33.0945C29.1365 33.8913 28.0157 34.4779 26.9161 34.365C26.0677 34.2783 25.2929 33.2949 25.095 32.9521C25.014 32.8122 24.8651 32.6887 24.7006 32.7206C24.5664 32.7468 24.5697 32.885 24.5583 33.0061C24.5288 33.317 24.789 34.8944 26.5291 35.2846C28.6693 35.7648 30.722 33.4888 31.7324 33.2066C32.7436 32.9243 33.3163 33.0078 33.3163 33.0078L33.2484 32.4735Z" fill="#362F3F"/>
</g>
<mask id="mask44_3767_8499" style="mask-type:luminance" maskUnits="userSpaceOnUse" x="2" y="2" width="64" height="64">
<path d="M34.0002 65.5029C51.4949 65.5029 65.6772 51.3206 65.6772 33.8259C65.6772 16.3312 51.4949 2.14893 34.0002 2.14893C16.5055 2.14893 2.32324 16.3312 2.32324 33.8259C2.32324 51.3206 16.5055 65.5029 34.0002 65.5029Z" fill="white"/>
</mask>
<g mask="url(#mask44_3767_8499)">
<path d="M55.8466 32.4033C55.611 32.2552 55.2723 31.8036 55.3533 31.3503C55.4351 30.8971 56.2606 30.6206 56.6075 31.1842C56.9544 31.7488 56.9257 32.1505 56.6762 32.3419C56.3768 32.5726 56.1199 32.5751 55.8466 32.4033Z" fill="#FF7D99"/>
</g>
<mask id="mask45_3767_8499" style="mask-type:luminance" maskUnits="userSpaceOnUse" x="2" y="2" width="64" height="64">
<path d="M34.0002 65.5029C51.4949 65.5029 65.6772 51.3206 65.6772 33.8259C65.6772 16.3312 51.4949 2.14893 34.0002 2.14893C16.5055 2.14893 2.32324 16.3312 2.32324 33.8259C2.32324 51.3206 16.5055 65.5029 34.0002 65.5029Z" fill="white"/>
</mask>
<g mask="url(#mask45_3767_8499)">
<path d="M55.6641 31.9295C55.4972 31.8248 55.2567 31.5041 55.3148 31.1826C55.3728 30.8611 55.9586 30.6647 56.2041 31.0648C56.4503 31.4648 56.4299 31.7496 56.2532 31.8854C56.0396 32.0498 55.858 32.0514 55.6641 31.9295Z" fill="#FF7D99"/>
</g>
<mask id="mask46_3767_8499" style="mask-type:luminance" maskUnits="userSpaceOnUse" x="2" y="2" width="64" height="64">
<path d="M34.0002 65.5029C51.4949 65.5029 65.6772 51.3206 65.6772 33.8259C65.6772 16.3312 51.4949 2.14893 34.0002 2.14893C16.5055 2.14893 2.32324 16.3312 2.32324 33.8259C2.32324 51.3206 16.5055 65.5029 34.0002 65.5029Z" fill="white"/>
</mask>
<g mask="url(#mask46_3767_8499)">
<path opacity="0.59" d="M40.4569 18.9141C40.191 18.8356 40.1558 18.5836 40.3767 18.4118C41.3298 17.6698 43.2549 16.3902 44.649 15.9779C46.5405 15.4175 46.781 17.6166 46.8497 19.2455C46.8931 20.2747 46.826 21.3251 46.6754 22.3126C46.5814 22.9287 45.9121 23.197 45.3493 22.473C44.8764 21.8651 44.3732 21.3399 43.3023 20.6207C42.1128 19.8239 41.068 19.0933 40.4569 18.9141Z" fill="url(#paint9_linear_3767_8499)"/>
</g>
<mask id="mask47_3767_8499" style="mask-type:luminance" maskUnits="userSpaceOnUse" x="2" y="2" width="64" height="64">
<path d="M34.0002 65.5029C51.4949 65.5029 65.6772 51.3206 65.6772 33.8259C65.6772 16.3312 51.4949 2.14893 34.0002 2.14893C16.5055 2.14893 2.32324 16.3312 2.32324 33.8259C2.32324 51.3206 16.5055 65.5029 34.0002 65.5029Z" fill="white"/>
</mask>
<g mask="url(#mask47_3767_8499)">
<path opacity="0.59" d="M25.1799 18.9302C25.4434 18.8525 25.4786 18.6013 25.2593 18.4303C24.3136 17.6916 22.4049 16.4161 21.0222 16.0046C19.1463 15.4458 18.909 17.6351 18.8419 19.2575C18.7994 20.2817 18.8665 21.3281 19.0162 22.3115C19.1095 22.9251 19.7738 23.1918 20.3309 22.4727C20.7997 21.8673 21.2979 21.3453 22.3599 20.6303C23.538 19.8351 24.5745 19.1086 25.1799 18.9302Z" fill="url(#paint10_linear_3767_8499)"/>
</g>
<mask id="mask48_3767_8499" style="mask-type:luminance" maskUnits="userSpaceOnUse" x="2" y="2" width="64" height="64">
<path d="M34.0002 65.5029C51.4949 65.5029 65.6772 51.3206 65.6772 33.8259C65.6772 16.3312 51.4949 2.14893 34.0002 2.14893C16.5055 2.14893 2.32324 16.3312 2.32324 33.8259C2.32324 51.3206 16.5055 65.5029 34.0002 65.5029Z" fill="white"/>
</mask>
<g mask="url(#mask48_3767_8499)">
<path d="M31.1769 29.1995C31.2972 29.1291 31.5565 29.1242 31.703 29.1242H33.9094C33.9094 29.1242 34.7202 29.0489 34.6899 29.7034C34.6597 30.3588 33.6239 31.2841 32.8434 31.3037C32.0138 31.3242 31.2604 30.3399 31.0419 30.0561C30.7114 29.6282 30.992 29.3075 31.1769 29.1995Z" fill="#D11D05"/>
</g>
<mask id="mask49_3767_8499" style="mask-type:luminance" maskUnits="userSpaceOnUse" x="2" y="2" width="64" height="64">
<path d="M34.0002 65.5029C51.4949 65.5029 65.6772 51.3206 65.6772 33.8259C65.6772 16.3312 51.4949 2.14893 34.0002 2.14893C16.5055 2.14893 2.32324 16.3312 2.32324 33.8259C2.32324 51.3206 16.5055 65.5029 34.0002 65.5029Z" fill="white"/>
</mask>
<g mask="url(#mask49_3767_8499)">
<path d="M31.5884 29.1783C31.6784 29.1301 31.8707 29.1268 31.9803 29.1268H33.6239C33.6239 29.1268 34.2277 29.0753 34.2056 29.5228C34.1835 29.9703 33.412 30.6027 32.8304 30.6158C32.2127 30.6297 31.6514 29.958 31.4886 29.7641C31.2424 29.4712 31.451 29.252 31.5884 29.1783Z" fill="#FF7D99"/>
</g>
<mask id="mask50_3767_8499" style="mask-type:luminance" maskUnits="userSpaceOnUse" x="2" y="2" width="64" height="64">
<path d="M34.0002 65.5029C51.4949 65.5029 65.6772 51.3206 65.6772 33.8259C65.6772 16.3312 51.4949 2.14893 34.0002 2.14893C16.5055 2.14893 2.32324 16.3312 2.32324 33.8259C2.32324 51.3206 16.5055 65.5029 34.0002 65.5029Z" fill="white"/>
</mask>
<g mask="url(#mask50_3767_8499)">
<path d="M30.6536 50.6656L35.1909 52.6119C35.2351 52.6308 35.2719 52.6627 35.2973 52.7036L36.1563 54.078C36.2021 54.1517 36.1825 54.249 36.1105 54.2989L31.6902 57.3374C31.6411 57.371 31.574 57.3423 31.5642 57.2834L30.5047 50.7826C30.4908 50.6984 30.5751 50.6321 30.6536 50.6656Z" stroke="white" stroke-width="0.42032" stroke-miterlimit="10"/>
<path d="M33.1882 53.845L30.7134 50.8359" stroke="white" stroke-width="0.42032" stroke-miterlimit="10"/>
<path d="M35.226 52.7197L32.9819 53.8119" stroke="white" stroke-width="0.42032" stroke-miterlimit="10"/>
<path d="M31.6895 57.3365L33.0238 53.7866L36.0951 54.0541" stroke="white" stroke-width="0.42032" stroke-miterlimit="10"/>
</g>
<mask id="mask51_3767_8499" style="mask-type:luminance" maskUnits="userSpaceOnUse" x="2" y="2" width="64" height="64">
<path d="M34.0002 65.5029C51.4949 65.5029 65.6772 51.3206 65.6772 33.8259C65.6772 16.3312 51.4949 2.14893 34.0002 2.14893C16.5055 2.14893 2.32324 16.3312 2.32324 33.8259C2.32324 51.3206 16.5055 65.5029 34.0002 65.5029Z" fill="white"/>
</mask>
<g mask="url(#mask51_3767_8499)">
<path d="M39.8523 30.4031C40.1918 30.3859 40.5166 30.5528 40.7236 30.8228C40.9813 31.1598 41.4942 31.7415 42.2665 32.234C43.4332 32.9769 43.8897 32.6889 43.8463 33.2264C43.803 33.7639 42.6478 33.7795 41.1523 33.0824C39.6567 32.3854 38.976 31.4282 39.282 30.7679C39.4047 30.5037 39.6281 30.4145 39.8523 30.4031Z" fill="url(#paint11_linear_3767_8499)"/>
</g>
<mask id="mask52_3767_8499" style="mask-type:luminance" maskUnits="userSpaceOnUse" x="2" y="2" width="64" height="64">
<path d="M34.0002 65.5029C51.4949 65.5029 65.6772 51.3206 65.6772 33.8259C65.6772 16.3312 51.4949 2.14893 34.0002 2.14893C16.5055 2.14893 2.32324 16.3312 2.32324 33.8259C2.32324 51.3206 16.5055 65.5029 34.0002 65.5029Z" fill="white"/>
</mask>
<g mask="url(#mask52_3767_8499)">
<path d="M26.1077 30.3786C25.769 30.3491 25.4385 30.5046 25.2225 30.7672C24.9525 31.0944 24.4199 31.6581 23.6304 32.1228C22.4376 32.8239 21.9926 32.5204 22.0163 33.0587C22.0408 33.5979 23.1952 33.6535 24.7136 33.0096C26.2321 32.3658 26.9471 31.4339 26.6649 30.7623C26.552 30.4947 26.3319 30.3974 26.1077 30.3786Z" fill="url(#paint12_linear_3767_8499)"/>
</g>
<mask id="mask53_3767_8499" style="mask-type:luminance" maskUnits="userSpaceOnUse" x="2" y="2" width="64" height="64">
<path d="M34.0002 65.5029C51.4949 65.5029 65.6772 51.3206 65.6772 33.8259C65.6772 16.3312 51.4949 2.14893 34.0002 2.14893C16.5055 2.14893 2.32324 16.3312 2.32324 33.8259C2.32324 51.3206 16.5055 65.5029 34.0002 65.5029Z" fill="white"/>
</mask>
<g mask="url(#mask53_3767_8499)">
<path d="M30.1813 37.5624C29.9293 37.1926 30.2639 36.7058 30.6999 36.8073C31.4518 36.9832 32.4426 37.1566 33.2926 37.1116C34.0984 37.0691 34.9329 36.9005 35.5694 36.741C35.9916 36.6355 36.3327 37.0928 36.111 37.4675C35.4713 38.5507 34.3447 40.0757 33.1216 39.9644C31.9525 39.8597 30.8497 38.545 30.1813 37.5624Z" fill="url(#paint13_linear_3767_8499)"/>
</g>
<mask id="mask54_3767_8499" style="mask-type:luminance" maskUnits="userSpaceOnUse" x="2" y="2" width="64" height="64">
<path d="M34.0002 65.5029C51.4949 65.5029 65.6772 51.3206 65.6772 33.8259C65.6772 16.3312 51.4949 2.14893 34.0002 2.14893C16.5055 2.14893 2.32324 16.3312 2.32324 33.8259C2.32324 51.3206 16.5055 65.5029 34.0002 65.5029Z" fill="white"/>
</mask>
<g mask="url(#mask54_3767_8499)">
<path d="M38.8288 20.646C38.8288 20.646 38.5735 20.9217 38.414 21.289C38.3166 21.5124 38.2864 21.7022 38.2864 21.7022" stroke="#CCC9F4" stroke-width="0.422308" stroke-miterlimit="10" stroke-linecap="round" stroke-linejoin="round"/>
</g>
<mask id="mask55_3767_8499" style="mask-type:luminance" maskUnits="userSpaceOnUse" x="2" y="2" width="64" height="64">
<path d="M34.0002 65.5029C51.4949 65.5029 65.6772 51.3206 65.6772 33.8259C65.6772 16.3312 51.4949 2.14893 34.0002 2.14893C16.5055 2.14893 2.32324 16.3312 2.32324 33.8259C2.32324 51.3206 16.5055 65.5029 34.0002 65.5029Z" fill="white"/>
</mask>
<g mask="url(#mask55_3767_8499)">
<path d="M39.7778 21.1484C39.7778 21.1484 39.6412 21.1795 39.4031 21.5019C39.2583 21.6974 39.2534 21.7481 39.2534 21.7481" stroke="#CCC9F4" stroke-width="0.422308" stroke-miterlimit="10" stroke-linecap="round" stroke-linejoin="round"/>
</g>
<mask id="mask56_3767_8499" style="mask-type:luminance" maskUnits="userSpaceOnUse" x="2" y="2" width="64" height="64">
<path d="M34.0002 65.5029C51.4949 65.5029 65.6772 51.3206 65.6772 33.8259C65.6772 16.3312 51.4949 2.14893 34.0002 2.14893C16.5055 2.14893 2.32324 16.3312 2.32324 33.8259C2.32324 51.3206 16.5055 65.5029 34.0002 65.5029Z" fill="white"/>
</mask>
<g mask="url(#mask56_3767_8499)">
<path d="M28.2209 20.5601C28.2209 20.5601 28.5539 20.8358 28.7625 21.2031C28.8894 21.4265 28.9294 21.6163 28.9294 21.6163" stroke="#CCC9F4" stroke-width="0.482653" stroke-miterlimit="10" stroke-linecap="round" stroke-linejoin="round"/>
</g>
<mask id="mask57_3767_8499" style="mask-type:luminance" maskUnits="userSpaceOnUse" x="2" y="2" width="64" height="64">
<path d="M34.0002 65.5029C51.4949 65.5029 65.6772 51.3206 65.6772 33.8259C65.6772 16.3312 51.4949 2.14893 34.0002 2.14893C16.5055 2.14893 2.32324 16.3312 2.32324 33.8259C2.32324 51.3206 16.5055 65.5029 34.0002 65.5029Z" fill="white"/>
</mask>
<g mask="url(#mask57_3767_8499)">
<path d="M26.9814 21.063C26.9814 21.063 27.1598 21.0941 27.4707 21.4164C27.6597 21.612 27.6662 21.6627 27.6662 21.6627" stroke="#CCC9F4" stroke-width="0.482653" stroke-miterlimit="10" stroke-linecap="round" stroke-linejoin="round"/>
</g>
</g>
<rect x="0.541667" y="0.541667" width="66.9167" height="66.9167" rx="33.4583" stroke="white" stroke-width="0.916667"/>
<path d="M88.1939 51.5C87.6103 51.5 86.9923 51.4485 86.34 51.3455C85.6877 51.2253 85.0955 51.0709 84.5634 50.882C84.0312 50.676 83.5849 50.4443 83.2244 50.1868C82.8811 49.9122 82.7094 49.6118 82.7094 49.2856C82.7094 47.3115 82.7009 45.3461 82.6837 43.3892C82.6665 41.4151 82.6494 39.3466 82.6322 37.1837C82.6322 35.0208 82.6236 32.7035 82.6065 30.2316C82.5893 27.7425 82.5807 24.996 82.5807 21.992C82.5807 20.8934 83.0098 20.0952 83.8681 19.5974C84.7264 19.0824 86.0224 18.8249 87.7562 18.8249C89.5929 18.8249 91.0091 19.0481 92.0047 19.4944C93.0003 19.9235 93.4982 20.5501 93.4982 21.374C93.4982 21.6658 93.481 21.9748 93.4467 22.301C93.4295 22.61 93.4209 22.876 93.4209 23.0992C93.4209 23.288 93.481 23.4082 93.6011 23.4597C93.7213 23.5112 93.8844 23.5369 94.0904 23.5369C94.3307 23.5369 94.5281 23.4253 94.6826 23.2022C94.8371 22.9619 95.0087 22.67 95.1976 22.3267C95.3864 21.9662 95.6181 21.58 95.8928 21.168C96.1846 20.7561 96.5708 20.3784 97.0515 20.0351C97.5321 19.6746 98.1415 19.3828 98.8796 19.1596C99.6178 18.9193 100.536 18.7992 101.635 18.7992C102.733 18.7992 103.677 18.885 104.467 19.0566C105.257 19.2111 105.918 19.4085 106.45 19.6489C106.999 19.872 107.454 20.1295 107.814 20.4213C108.175 20.696 108.467 20.9535 108.69 21.1938C108.93 21.4169 109.136 21.6143 109.308 21.786C109.48 21.9405 109.651 22.0177 109.823 22.0177C109.994 22.0177 110.166 21.9405 110.338 21.786C110.509 21.6143 110.724 21.4169 110.982 21.1938C111.239 20.9535 111.548 20.696 111.908 20.4213C112.286 20.1295 112.758 19.872 113.325 19.6489C113.891 19.4085 114.578 19.2111 115.385 19.0566C116.191 18.885 117.161 18.7992 118.294 18.7992C119.41 18.7992 120.448 18.9022 121.41 19.1081C122.388 19.297 123.229 19.5888 123.933 19.9836C124.654 20.3784 125.221 20.8762 125.633 21.477C126.045 22.0778 126.25 22.7816 126.25 23.5884C126.25 25.2192 126.25 26.91 126.25 28.6609C126.268 30.4118 126.276 32.1541 126.276 33.8879C126.276 35.6045 126.285 37.2696 126.302 38.8831C126.319 40.4967 126.328 41.9816 126.328 43.3377C126.328 44.6938 126.328 45.8868 126.328 46.9167C126.345 47.9295 126.353 48.7106 126.353 49.2599C126.353 49.586 126.165 49.8864 125.787 50.1611C125.427 50.4186 124.937 50.6417 124.319 50.8305C123.719 51.0022 123.023 51.1395 122.234 51.2425C121.461 51.3283 120.672 51.3713 119.865 51.3713C119.384 51.3713 118.878 51.3369 118.346 51.2683C117.814 51.1824 117.333 51.0623 116.904 50.9078C116.475 50.7533 116.114 50.5559 115.822 50.3156C115.548 50.0752 115.41 49.7834 115.41 49.4401C115.41 48.6848 115.41 47.8094 115.41 46.8137C115.41 45.801 115.41 44.7367 115.41 43.6209C115.41 42.5051 115.402 41.3722 115.385 40.2221C115.385 39.0548 115.385 37.939 115.385 36.8747C115.385 35.8105 115.385 34.832 115.385 33.9394C115.385 33.0296 115.385 32.2743 115.385 31.6735C115.385 31.21 115.333 30.841 115.23 30.5663C115.127 30.2745 114.955 30.0599 114.715 29.9226C114.492 29.7853 114.183 29.6994 113.788 29.6651C113.41 29.6136 112.93 29.5879 112.346 29.5879C111.436 29.5879 110.741 29.7338 110.261 30.0256C109.797 30.3174 109.565 30.8667 109.565 31.6735C109.565 32.2915 109.565 33.0639 109.565 33.9909C109.565 34.9007 109.557 35.8877 109.54 36.952C109.54 37.9991 109.54 39.0891 109.54 40.2221C109.54 41.355 109.531 42.4536 109.514 43.5179C109.514 44.565 109.514 45.5521 109.514 46.479C109.514 47.406 109.514 48.187 109.514 48.8221C109.514 49.4744 109.394 49.9808 109.153 50.3413C108.913 50.6846 108.587 50.9335 108.175 51.088C107.763 51.2425 107.274 51.3283 106.707 51.3455C106.141 51.3627 105.531 51.3713 104.879 51.3713C104.141 51.3713 103.471 51.3283 102.871 51.2425C102.287 51.1567 101.781 51.0194 101.352 50.8305C100.922 50.6245 100.588 50.3671 100.347 50.0581C100.124 49.7319 100.013 49.3371 100.013 48.8736C100.013 47.363 100.004 45.9211 99.9868 44.5479C99.9697 43.1574 99.9525 41.8099 99.9353 40.5053C99.9182 39.1835 99.901 37.8875 99.8838 36.6173C99.8667 35.347 99.8581 34.0681 99.8581 32.7807C99.8581 32.2142 99.8152 31.7508 99.7293 31.3903C99.6607 31.0298 99.5062 30.7466 99.2659 30.5406C99.0427 30.3174 98.7166 30.1629 98.2874 30.0771C97.8583 29.9913 97.3004 29.9483 96.6137 29.9483C95.9614 29.9483 95.4293 29.9913 95.0173 30.0771C94.6225 30.1629 94.3049 30.3002 94.0646 30.4891C93.8415 30.6779 93.687 30.9268 93.6011 31.2358C93.5153 31.5276 93.4724 31.8967 93.4724 32.343C93.4724 33.6476 93.4896 34.9779 93.5239 36.334C93.5582 37.673 93.6011 39.0634 93.6526 40.5053C93.7041 41.9301 93.7471 43.4063 93.7814 44.9341C93.8157 46.4618 93.8329 48.0583 93.8329 49.7233C93.8329 50.101 93.6612 50.41 93.3179 50.6503C92.9918 50.8734 92.5626 51.0537 92.0305 51.191C91.4983 51.3112 90.8975 51.397 90.2281 51.4485C89.5586 51.4828 88.8806 51.5 88.1939 51.5ZM145.984 40.3766C146.413 40.3766 146.817 40.3422 147.194 40.2736C147.589 40.1877 147.924 40.059 148.199 39.8873C148.49 39.6985 148.722 39.4582 148.894 39.1664C149.066 38.8574 149.151 38.4797 149.151 38.0334C149.151 37.3125 149.143 36.7202 149.126 36.2568C149.126 35.7933 149.117 35.347 149.1 34.9178C149.1 34.4887 149.091 34.0338 149.074 33.5532C149.074 33.0725 149.074 32.446 149.074 31.6735C149.074 31.313 148.988 31.0126 148.817 30.7723C148.645 30.532 148.422 30.3432 148.147 30.2058C147.873 30.0513 147.555 29.9483 147.194 29.8968C146.834 29.8453 146.474 29.8196 146.113 29.8196C145.238 29.8196 144.525 29.9913 143.976 30.3346C143.444 30.6779 143.032 31.1156 142.74 31.6478C142.448 32.1627 142.251 32.7378 142.148 33.3729C142.045 33.9909 141.993 34.5831 141.993 35.1496C141.993 35.7332 142.053 36.3426 142.173 36.9777C142.294 37.5957 142.508 38.1536 142.817 38.6514C143.126 39.1492 143.538 39.5612 144.053 39.8873C144.568 40.2135 145.212 40.3766 145.984 40.3766ZM141.118 51.5515C139.212 51.5515 137.625 51.1395 136.354 50.3156C135.101 49.4916 134.088 48.3587 133.316 46.9167C132.561 45.4748 132.02 43.784 131.694 41.8442C131.385 39.8873 131.23 37.7931 131.23 35.5616C131.23 34.0681 131.308 32.6176 131.462 31.21C131.634 29.8024 131.9 28.4807 132.26 27.2447C132.638 25.9916 133.11 24.8501 133.676 23.8202C134.26 22.7902 134.964 21.9062 135.788 21.168C136.612 20.4127 137.564 19.8291 138.646 19.4171C139.745 19.0051 140.98 18.7992 142.354 18.7992C142.817 18.7992 143.298 18.885 143.796 19.0566C144.311 19.2111 144.817 19.3914 145.315 19.5974C145.813 19.7862 146.276 19.9664 146.705 20.1381C147.152 20.2926 147.538 20.3698 147.864 20.3698C148.327 20.3698 148.559 20.1896 148.559 19.8291C148.559 19.6059 148.722 19.4257 149.048 19.2884C149.375 19.1339 149.761 19.0137 150.207 18.9279C150.671 18.8249 151.151 18.7562 151.649 18.7219C152.147 18.6704 152.567 18.6447 152.911 18.6447C153.82 18.6447 154.644 18.6876 155.383 18.7734C156.121 18.8592 156.747 19.0137 157.262 19.2369C157.794 19.46 158.206 19.769 158.498 20.1638C158.79 20.5587 158.936 21.0736 158.936 21.7088C158.936 22.67 158.953 23.7086 158.987 24.8244C159.022 25.923 159.056 27.0473 159.09 28.1974C159.125 29.3304 159.159 30.4547 159.193 31.5705C159.228 32.6863 159.245 33.7334 159.245 34.7119V49.0281C159.245 49.4744 159.039 49.8521 158.627 50.1611C158.232 50.4701 157.751 50.719 157.185 50.9078C156.636 51.0966 156.061 51.2339 155.46 51.3198C154.859 51.4056 154.361 51.4485 153.966 51.4485C153.554 51.4485 153.117 51.4142 152.653 51.3455C152.19 51.2768 151.761 51.1481 151.366 50.9593C150.971 50.7533 150.636 50.4786 150.362 50.1353C150.104 49.7748 149.975 49.3028 149.975 48.7191C149.975 48.5646 149.89 48.4531 149.718 48.3844C149.563 48.3157 149.349 48.2814 149.074 48.2814C148.817 48.2814 148.568 48.3672 148.327 48.5389C148.104 48.6934 147.855 48.8908 147.581 49.1311C147.306 49.3714 146.988 49.6375 146.628 49.9293C146.268 50.204 145.83 50.4615 145.315 50.7018C144.817 50.9421 144.225 51.1481 143.538 51.3198C142.852 51.4743 142.045 51.5515 141.118 51.5515ZM171.537 51.397C170.954 51.397 170.336 51.3627 169.683 51.294C169.031 51.2253 168.43 51.1052 167.881 50.9335C167.332 50.7619 166.868 50.5301 166.491 50.2383C166.13 49.9293 165.95 49.5345 165.95 49.0539C165.95 47.4746 165.933 45.8525 165.898 44.1874C165.864 42.5223 165.821 40.8658 165.77 39.2179C165.718 37.57 165.675 35.9478 165.641 34.3514C165.607 32.7549 165.589 31.2529 165.589 29.8453C165.589 29.2274 165.589 28.5493 165.589 27.8112C165.607 27.0559 165.615 26.2834 165.615 25.4938C165.632 24.7042 165.641 23.9146 165.641 23.1249C165.658 22.3353 165.667 21.5972 165.667 20.9105C165.667 20.4299 165.838 20.0523 166.182 19.7776C166.525 19.503 166.963 19.297 167.495 19.1596C168.027 19.0051 168.611 18.9107 169.246 18.8764C169.898 18.8421 170.516 18.8249 171.1 18.8249C171.821 18.8249 172.507 18.8421 173.159 18.8764C173.812 18.9107 174.387 18.9794 174.885 19.0824C175.382 19.1682 175.777 19.297 176.069 19.4686C176.361 19.6231 176.507 19.8205 176.507 20.0608C176.507 20.4042 176.584 20.6874 176.739 20.9105C176.893 21.1165 177.193 21.2195 177.64 21.2195C178.206 21.2195 178.884 21.0994 179.674 20.8591C180.464 20.6016 181.313 20.3183 182.223 20.0093C183.15 19.7004 184.103 19.4257 185.081 19.1854C186.077 18.9279 187.055 18.7992 188.016 18.7992C188.875 18.7992 189.621 18.9022 190.257 19.1081C190.892 19.3141 191.415 19.6746 191.827 20.1896C192.239 20.7046 192.548 21.4084 192.754 22.301C192.96 23.1936 193.063 24.3265 193.063 25.6998C193.063 26.4894 193.072 27.4679 193.089 28.6352C193.106 29.8024 193.123 31.0641 193.14 32.4202C193.175 33.7591 193.201 35.141 193.218 36.5658C193.252 37.9905 193.278 39.3638 193.295 40.6855C193.329 41.9901 193.355 43.1918 193.372 44.2904C193.389 45.3718 193.398 46.2558 193.398 46.9425C193.398 48.0411 193.312 48.8908 193.14 49.4916C192.986 50.0924 192.711 50.5387 192.316 50.8305C191.939 51.1052 191.424 51.2683 190.772 51.3198C190.119 51.3541 189.304 51.3713 188.325 51.3713C187.484 51.3713 186.72 51.3541 186.034 51.3198C185.364 51.2854 184.789 51.191 184.309 51.0365C183.845 50.882 183.485 50.6417 183.227 50.3156C182.987 49.9722 182.867 49.5088 182.867 48.9251V32.9609C182.867 32.2915 182.824 31.7508 182.738 31.3388C182.652 30.9268 182.48 30.6092 182.223 30.3861C181.983 30.1457 181.639 29.9913 181.193 29.9226C180.747 29.8368 180.163 29.7938 179.442 29.7938C178.344 29.7938 177.562 29.9655 177.099 30.3088C176.636 30.635 176.404 31.1242 176.404 31.7765C176.404 33.1669 176.421 34.5488 176.455 35.922C176.507 37.2953 176.558 38.6857 176.61 40.0933C176.661 41.4838 176.704 42.9085 176.739 44.3676C176.79 45.8267 176.816 47.3459 176.816 48.9251C176.816 49.3028 176.67 49.6461 176.378 49.9551C176.086 50.2641 175.691 50.5301 175.194 50.7533C174.713 50.9593 174.155 51.1224 173.52 51.2425C172.885 51.3455 172.224 51.397 171.537 51.397ZM214.574 52.1695C212.153 52.1695 209.956 51.7661 207.982 50.9593C206.025 50.1353 204.351 48.9852 202.961 47.509C201.571 46.0155 200.498 44.2389 199.742 42.179C198.987 40.1019 198.609 37.8103 198.609 35.3041C198.609 32.3687 198.961 29.8625 199.665 27.7855C200.386 25.6912 201.39 23.9746 202.678 22.6357C203.965 21.2968 205.502 20.3183 207.287 19.7004C209.089 19.0824 211.072 18.7734 213.235 18.7734C215.14 18.7734 216.882 18.988 218.462 19.4171C220.041 19.8463 221.397 20.4642 222.53 21.271C223.663 22.0778 224.538 23.0649 225.156 24.2321C225.774 25.3822 226.083 26.6954 226.083 28.1717C226.083 29.7509 225.757 31.21 225.105 32.549C224.453 33.8707 223.543 35.0123 222.376 35.9735C221.225 36.9348 219.844 37.6901 218.23 38.2394C216.616 38.7716 214.84 39.0376 212.9 39.0376C211.939 39.0376 211.244 39.1063 210.814 39.2436C210.385 39.3809 210.171 39.5955 210.171 39.8873C210.171 40.3851 210.565 40.8315 211.355 41.2263C212.162 41.6211 213.381 41.8185 215.011 41.8185C216.059 41.8185 217.02 41.6726 217.895 41.3808C218.771 41.0889 219.569 40.7714 220.29 40.4281C221.011 40.0676 221.655 39.7414 222.221 39.4496C222.805 39.1578 223.32 39.0119 223.766 39.0119C224.435 39.0119 225.088 39.2865 225.723 39.8358C226.358 40.3851 226.864 41.0632 227.242 41.87C227.414 42.2305 227.56 42.6424 227.68 43.1059C227.817 43.5694 227.894 44.0329 227.911 44.4964C227.946 44.9598 227.92 45.4061 227.834 45.8353C227.766 46.2473 227.611 46.5992 227.371 46.891C226.856 47.509 226.161 48.1355 225.285 48.7706C224.41 49.4058 223.414 49.9722 222.298 50.4701C221.183 50.9679 219.964 51.3713 218.642 51.6802C217.32 52.0064 215.964 52.1695 214.574 52.1695ZM212.617 32.4975C213.252 32.4975 213.861 32.4031 214.445 32.2142C215.029 32.0082 215.544 31.7422 215.99 31.416C216.453 31.0899 216.814 30.7208 217.071 30.3088C217.346 29.8797 217.483 29.442 217.483 28.9956C217.483 28.2403 217.114 27.6481 216.376 27.219C215.638 26.7727 214.668 26.5495 213.466 26.5495C212.849 26.5495 212.273 26.6783 211.741 26.9357C211.226 27.1761 210.771 27.485 210.377 27.8627C209.999 28.2403 209.699 28.6609 209.475 29.1244C209.252 29.5707 209.141 29.9998 209.141 30.4118C209.141 31.0641 209.45 31.5791 210.068 31.9567C210.686 32.3172 211.535 32.4975 212.617 32.4975ZM254.546 51.5C253.053 51.5 251.902 51.3541 251.096 51.0623C250.306 50.7533 249.911 50.2297 249.911 49.4916C249.911 48.7878 249.834 48.0068 249.679 47.1485C249.525 46.273 249.31 45.3976 249.036 44.5221C248.778 43.6295 248.478 42.7626 248.135 41.9215C247.791 41.0804 247.422 40.3422 247.027 39.7071C246.65 39.0548 246.263 38.5312 245.869 38.1364C245.491 37.7416 245.122 37.5442 244.761 37.5442C244.418 37.5442 244.161 37.7845 243.989 38.2652C243.834 38.7286 243.757 39.2865 243.757 39.9388C243.757 40.4195 243.792 40.9859 243.86 41.6382C243.946 42.2905 244.04 43.0029 244.143 43.7754C244.246 44.5479 244.332 45.3718 244.401 46.2473C244.487 47.1056 244.53 47.9896 244.53 48.8994C244.53 49.483 244.384 49.9465 244.092 50.2898C243.8 50.616 243.405 50.8649 242.908 51.0365C242.427 51.2082 241.869 51.3198 241.234 51.3713C240.616 51.4056 239.964 51.4228 239.277 51.4228C238.882 51.4228 238.453 51.4313 237.99 51.4485C237.543 51.4485 237.097 51.4399 236.651 51.4228C236.204 51.4056 235.775 51.3713 235.363 51.3198C234.951 51.2511 234.582 51.1395 234.256 50.985C233.947 50.8305 233.698 50.6331 233.509 50.3928C233.32 50.1353 233.226 49.8092 233.226 49.4144C233.226 47.8866 233.2 46.3245 233.149 44.7281C233.097 43.1317 233.037 41.5438 232.969 39.9646C232.917 38.3682 232.866 36.8061 232.814 35.2783C232.763 33.7334 232.737 32.2657 232.737 30.8753C232.737 29.8453 232.72 28.6781 232.685 27.3735C232.668 26.0517 232.642 24.7042 232.608 23.3309C232.574 21.9405 232.539 20.5844 232.505 19.2626C232.488 17.9237 232.479 16.7221 232.479 15.6578C232.479 15.0055 232.651 14.4991 232.994 14.1386C233.338 13.7782 233.767 13.5121 234.282 13.3404C234.814 13.1516 235.397 13.04 236.033 13.0057C236.685 12.9714 237.311 12.9542 237.912 12.9542C238.427 12.9542 239.019 12.9628 239.689 12.98C240.376 12.9971 241.019 13.0829 241.62 13.2374C242.238 13.3748 242.762 13.6151 243.191 13.9584C243.62 14.2846 243.834 14.7652 243.834 15.4003C243.834 15.8123 243.826 16.3788 243.809 17.0997C243.809 17.8035 243.8 18.5417 243.783 19.3141C243.766 20.0694 243.749 20.8076 243.731 21.5285C243.731 22.2323 243.731 22.7902 243.731 23.2022C243.731 24.0776 243.731 24.8072 243.731 25.3908C243.731 25.9745 243.757 26.4465 243.809 26.807C243.877 27.1503 243.98 27.3906 244.118 27.528C244.255 27.6653 244.461 27.734 244.736 27.734C244.925 27.734 245.13 27.6224 245.354 27.3992C245.594 27.1589 245.834 26.8499 246.075 26.4723C246.315 26.0775 246.547 25.6311 246.77 25.1333C246.993 24.6355 247.19 24.1206 247.362 23.5884C247.551 23.0563 247.697 22.5327 247.8 22.0177C247.92 21.5028 247.98 21.0307 247.98 20.6016C247.98 20.2068 248.143 19.8892 248.469 19.6489C248.795 19.4085 249.207 19.2197 249.705 19.0824C250.22 18.9279 250.778 18.8249 251.379 18.7734C251.997 18.7219 252.589 18.6962 253.156 18.6962C254.941 18.6962 256.34 18.9022 257.353 19.3141C258.365 19.7261 258.872 20.4042 258.872 21.3483C258.872 22.0692 258.7 22.8245 258.357 23.6142C258.013 24.4038 257.576 25.1848 257.044 25.9573C256.529 26.7298 255.971 27.4765 255.37 28.1974C254.769 28.9184 254.203 29.5707 253.67 30.1543C253.156 30.738 252.726 31.2358 252.383 31.6478C252.04 32.0426 251.868 32.3172 251.868 32.4717C251.868 32.6262 252.065 32.8751 252.46 33.2184C252.872 33.5617 253.379 34.0338 253.979 34.6346C254.58 35.2354 255.233 35.9821 255.936 36.8747C256.657 37.7502 257.318 38.8059 257.919 40.0418C258.52 41.2606 259.018 42.6682 259.412 44.2646C259.824 45.8439 260.03 47.6463 260.03 49.6718C260.03 50.0838 259.842 50.41 259.464 50.6503C259.103 50.8906 258.64 51.0794 258.074 51.2168C257.524 51.3369 256.932 51.4142 256.297 51.4485C255.662 51.4828 255.078 51.5 254.546 51.5ZM264.907 49.8778C264.907 45.6894 264.924 41.5353 264.959 37.4155C264.993 33.2957 265.01 29.1415 265.01 24.9531C265.01 24.2321 265.208 23.6657 265.602 23.2537C265.997 22.8417 266.478 22.5327 267.044 22.3267C267.628 22.1207 268.246 21.992 268.898 21.9405C269.551 21.889 270.143 21.8633 270.675 21.8633C271.173 21.8633 271.765 21.889 272.452 21.9405C273.155 21.992 273.825 22.1207 274.46 22.3267C275.095 22.5156 275.627 22.816 276.056 23.2279C276.503 23.6227 276.726 24.1721 276.726 24.8758C276.726 28.9613 276.743 32.9867 276.777 36.952C276.812 40.9173 276.829 44.9427 276.829 49.0281C276.829 49.4401 276.709 49.8006 276.468 50.1096C276.245 50.4014 275.953 50.6589 275.593 50.882C275.232 51.088 274.82 51.2597 274.357 51.397C273.894 51.5172 273.43 51.6116 272.967 51.6802C272.503 51.7661 272.065 51.8176 271.653 51.8347C271.241 51.8691 270.889 51.8862 270.598 51.8862C270.323 51.8862 269.868 51.8605 269.233 51.809C268.615 51.7575 267.98 51.6545 267.328 51.5C266.692 51.3627 266.126 51.1653 265.628 50.9078C265.148 50.6503 264.907 50.307 264.907 49.8778ZM270.752 19.8806C269.825 19.8806 269.001 19.8634 268.28 19.8291C267.559 19.7948 266.941 19.6489 266.426 19.3914C265.929 19.1339 265.551 18.7219 265.293 18.1554C265.036 17.589 264.907 16.765 264.907 15.6836C264.907 14.6879 265.053 13.9069 265.345 13.3404C265.637 12.774 266.04 12.3534 266.555 12.0787C267.087 11.8041 267.705 11.641 268.409 11.5895C269.13 11.5209 269.911 11.4865 270.752 11.4865C271.628 11.4865 272.426 11.5123 273.147 11.5638C273.868 11.6153 274.477 11.7783 274.975 12.053C275.49 12.3105 275.885 12.7225 276.159 13.2889C276.451 13.8554 276.597 14.6536 276.597 15.6836C276.597 16.7478 276.46 17.5718 276.185 18.1554C275.928 18.7219 275.55 19.1339 275.052 19.3914C274.554 19.6489 273.945 19.7948 273.224 19.8291C272.503 19.8634 271.679 19.8806 270.752 19.8806ZM284.384 40.1963C284.006 40.1963 283.697 40.0504 283.457 39.7586C283.216 39.4668 283.027 39.0977 282.89 38.6514C282.753 38.2051 282.658 37.7244 282.607 37.2095C282.555 36.6773 282.53 36.1881 282.53 35.7418C282.53 35.2955 282.564 34.8406 282.633 34.3771C282.718 33.8965 282.839 33.4673 282.993 33.0897C283.148 32.712 283.345 32.4031 283.585 32.1627C283.826 31.9224 284.109 31.8022 284.435 31.8022C285.31 31.8022 286.177 31.7765 287.036 31.725C287.911 31.6735 288.778 31.6478 289.636 31.6478H303.747C304.021 31.6478 304.236 31.7851 304.39 32.0597C304.562 32.3172 304.691 32.652 304.777 33.0639C304.879 33.4759 304.94 33.9222 304.957 34.4029C304.991 34.8835 305.008 35.3384 305.008 35.7675C305.008 36.1967 304.982 36.6688 304.931 37.1837C304.879 37.6987 304.794 38.1793 304.674 38.6257C304.571 39.072 304.416 39.4496 304.21 39.7586C304.021 40.0504 303.781 40.1963 303.489 40.1963H284.384ZM316.914 51.397C316.331 51.397 315.713 51.3627 315.061 51.294C314.408 51.2253 313.807 51.1052 313.258 50.9335C312.709 50.7619 312.245 50.5301 311.868 50.2383C311.507 49.9293 311.327 49.5345 311.327 49.0539C311.327 47.4746 311.31 45.8525 311.275 44.1874C311.241 42.5223 311.198 40.8658 311.147 39.2179C311.095 37.57 311.052 35.9478 311.018 34.3514C310.984 32.7549 310.966 31.2529 310.966 29.8453C310.966 29.2274 310.966 28.5493 310.966 27.8112C310.984 27.0559 310.992 26.2834 310.992 25.4938C311.009 24.7042 311.018 23.9146 311.018 23.1249C311.035 22.3353 311.044 21.5972 311.044 20.9105C311.044 20.4299 311.215 20.0523 311.559 19.7776C311.902 19.503 312.34 19.297 312.872 19.1596C313.404 19.0051 313.988 18.9107 314.623 18.8764C315.275 18.8421 315.893 18.8249 316.477 18.8249C317.198 18.8249 317.884 18.8421 318.537 18.8764C319.189 18.9107 319.764 18.9794 320.262 19.0824C320.76 19.1682 321.154 19.297 321.446 19.4686C321.738 19.6231 321.884 19.8205 321.884 20.0608C321.884 20.4042 321.961 20.6874 322.116 20.9105C322.27 21.1165 322.571 21.2195 323.017 21.2195C323.583 21.2195 324.261 21.0994 325.051 20.8591C325.841 20.6016 326.69 20.3183 327.6 20.0093C328.527 19.7004 329.48 19.4257 330.458 19.1854C331.454 18.9279 332.432 18.7992 333.394 18.7992C334.252 18.7992 334.999 18.9022 335.634 19.1081C336.269 19.3141 336.792 19.6746 337.204 20.1896C337.616 20.7046 337.925 21.4084 338.131 22.301C338.337 23.1936 338.44 24.3265 338.44 25.6998C338.44 26.4894 338.449 27.4679 338.466 28.6352C338.483 29.8024 338.5 31.0641 338.518 32.4202C338.552 33.7591 338.578 35.141 338.595 36.5658C338.629 37.9905 338.655 39.3638 338.672 40.6855C338.706 41.9901 338.732 43.1918 338.749 44.2904C338.767 45.3718 338.775 46.2558 338.775 46.9425C338.775 48.0411 338.689 48.8908 338.518 49.4916C338.363 50.0924 338.088 50.5387 337.694 50.8305C337.316 51.1052 336.801 51.2683 336.149 51.3198C335.496 51.3541 334.681 51.3713 333.703 51.3713C332.861 51.3713 332.098 51.3541 331.411 51.3198C330.741 51.2854 330.166 51.191 329.686 51.0365C329.222 50.882 328.862 50.6417 328.604 50.3156C328.364 49.9722 328.244 49.5088 328.244 48.9251V32.9609C328.244 32.2915 328.201 31.7508 328.115 31.3388C328.029 30.9268 327.858 30.6092 327.6 30.3861C327.36 30.1457 327.017 29.9913 326.57 29.9226C326.124 29.8368 325.54 29.7938 324.819 29.7938C323.721 29.7938 322.94 29.9655 322.476 30.3088C322.013 30.635 321.781 31.1242 321.781 31.7765C321.781 33.1669 321.798 34.5488 321.832 35.922C321.884 37.2953 321.935 38.6857 321.987 40.0933C322.038 41.4838 322.081 42.9085 322.116 44.3676C322.167 45.8267 322.193 47.3459 322.193 48.9251C322.193 49.3028 322.047 49.6461 321.755 49.9551C321.463 50.2641 321.069 50.5301 320.571 50.7533C320.09 50.9593 319.532 51.1224 318.897 51.2425C318.262 51.3455 317.601 51.397 316.914 51.397ZM359.951 52.1695C357.53 52.1695 355.333 51.7661 353.359 50.9593C351.402 50.1353 349.729 48.9852 348.338 47.509C346.948 46.0155 345.875 44.2389 345.12 42.179C344.364 40.1019 343.987 37.8103 343.987 35.3041C343.987 32.3687 344.338 29.8625 345.042 27.7855C345.763 25.6912 346.767 23.9746 348.055 22.6357C349.342 21.2968 350.879 20.3183 352.664 19.7004C354.466 19.0824 356.449 18.7734 358.612 18.7734C360.517 18.7734 362.26 18.988 363.839 19.4171C365.418 19.8463 366.774 20.4642 367.907 21.271C369.04 22.0778 369.916 23.0649 370.533 24.2321C371.151 25.3822 371.46 26.6954 371.46 28.1717C371.46 29.7509 371.134 31.21 370.482 32.549C369.83 33.8707 368.92 35.0123 367.753 35.9735C366.603 36.9348 365.221 37.6901 363.607 38.2394C361.994 38.7716 360.217 39.0376 358.277 39.0376C357.316 39.0376 356.621 39.1063 356.191 39.2436C355.762 39.3809 355.548 39.5955 355.548 39.8873C355.548 40.3851 355.943 40.8315 356.732 41.2263C357.539 41.6211 358.758 41.8185 360.389 41.8185C361.436 41.8185 362.397 41.6726 363.272 41.3808C364.148 41.0889 364.946 40.7714 365.667 40.4281C366.388 40.0676 367.032 39.7414 367.598 39.4496C368.182 39.1578 368.697 39.0119 369.143 39.0119C369.813 39.0119 370.465 39.2865 371.1 39.8358C371.735 40.3851 372.241 41.0632 372.619 41.87C372.791 42.2305 372.937 42.6424 373.057 43.1059C373.194 43.5694 373.271 44.0329 373.289 44.4964C373.323 44.9598 373.297 45.4061 373.211 45.8353C373.143 46.2473 372.988 46.5992 372.748 46.891C372.233 47.509 371.538 48.1355 370.662 48.7706C369.787 49.4058 368.791 49.9722 367.675 50.4701C366.56 50.9679 365.341 51.3713 364.019 51.6802C362.697 52.0064 361.341 52.1695 359.951 52.1695ZM357.994 32.4975C358.629 32.4975 359.238 32.4031 359.822 32.2142C360.406 32.0082 360.921 31.7422 361.367 31.416C361.83 31.0899 362.191 30.7208 362.448 30.3088C362.723 29.8797 362.86 29.442 362.86 28.9956C362.86 28.2403 362.491 27.6481 361.753 27.219C361.015 26.7727 360.045 26.5495 358.844 26.5495C358.226 26.5495 357.651 26.6783 357.118 26.9357C356.603 27.1761 356.149 27.485 355.754 27.8627C355.376 28.2403 355.076 28.6609 354.853 29.1244C354.629 29.5707 354.518 29.9998 354.518 30.4118C354.518 31.0641 354.827 31.5791 355.445 31.9567C356.063 32.3172 356.912 32.4975 357.994 32.4975ZM399.923 51.5C398.43 51.5 397.28 51.3541 396.473 51.0623C395.683 50.7533 395.288 50.2297 395.288 49.4916C395.288 48.7878 395.211 48.0068 395.057 47.1485C394.902 46.273 394.688 45.3976 394.413 44.5221C394.155 43.6295 393.855 42.7626 393.512 41.9215C393.168 41.0804 392.799 40.3422 392.404 39.7071C392.027 39.0548 391.641 38.5312 391.246 38.1364C390.868 37.7416 390.499 37.5442 390.139 37.5442C389.795 37.5442 389.538 37.7845 389.366 38.2652C389.212 38.7286 389.134 39.2865 389.134 39.9388C389.134 40.4195 389.169 40.9859 389.237 41.6382C389.323 42.2905 389.418 43.0029 389.521 43.7754C389.624 44.5479 389.709 45.3718 389.778 46.2473C389.864 47.1056 389.907 47.9896 389.907 48.8994C389.907 49.483 389.761 49.9465 389.469 50.2898C389.177 50.616 388.782 50.8649 388.285 51.0365C387.804 51.2082 387.246 51.3198 386.611 51.3713C385.993 51.4056 385.341 51.4228 384.654 51.4228C384.259 51.4228 383.83 51.4313 383.367 51.4485C382.92 51.4485 382.474 51.4399 382.028 51.4228C381.581 51.4056 381.152 51.3713 380.74 51.3198C380.328 51.2511 379.959 51.1395 379.633 50.985C379.324 50.8305 379.075 50.6331 378.886 50.3928C378.698 50.1353 378.603 49.8092 378.603 49.4144C378.603 47.8866 378.577 46.3245 378.526 44.7281C378.474 43.1317 378.414 41.5438 378.346 39.9646C378.294 38.3682 378.243 36.8061 378.191 35.2783C378.14 33.7334 378.114 32.2657 378.114 30.8753C378.114 29.8453 378.097 28.6781 378.062 27.3735C378.045 26.0517 378.02 24.7042 377.985 23.3309C377.951 21.9405 377.917 20.5844 377.882 19.2626C377.865 17.9237 377.856 16.7221 377.856 15.6578C377.856 15.0055 378.028 14.4991 378.371 14.1386C378.715 13.7782 379.144 13.5121 379.659 13.3404C380.191 13.1516 380.775 13.04 381.41 13.0057C382.062 12.9714 382.689 12.9542 383.289 12.9542C383.804 12.9542 384.397 12.9628 385.066 12.98C385.753 12.9971 386.396 13.0829 386.997 13.2374C387.615 13.3748 388.139 13.6151 388.568 13.9584C388.997 14.2846 389.212 14.7652 389.212 15.4003C389.212 15.8123 389.203 16.3788 389.186 17.0997C389.186 17.8035 389.177 18.5417 389.16 19.3141C389.143 20.0694 389.126 20.8076 389.109 21.5285C389.109 22.2323 389.109 22.7902 389.109 23.2022C389.109 24.0776 389.109 24.8072 389.109 25.3908C389.109 25.9745 389.134 26.4465 389.186 26.807C389.255 27.1503 389.358 27.3906 389.495 27.528C389.632 27.6653 389.838 27.734 390.113 27.734C390.302 27.734 390.508 27.6224 390.731 27.3992C390.971 27.1589 391.211 26.8499 391.452 26.4723C391.692 26.0775 391.924 25.6311 392.147 25.1333C392.37 24.6355 392.568 24.1206 392.739 23.5884C392.928 23.0563 393.074 22.5327 393.177 22.0177C393.297 21.5028 393.357 21.0307 393.357 20.6016C393.357 20.2068 393.52 19.8892 393.846 19.6489C394.173 19.4085 394.585 19.2197 395.082 19.0824C395.597 18.9279 396.155 18.8249 396.756 18.7734C397.374 18.7219 397.966 18.6962 398.533 18.6962C400.318 18.6962 401.717 18.9022 402.73 19.3141C403.742 19.7261 404.249 20.4042 404.249 21.3483C404.249 22.0692 404.077 22.8245 403.734 23.6142C403.391 24.4038 402.953 25.1848 402.421 25.9573C401.906 26.7298 401.348 27.4765 400.747 28.1974C400.146 28.9184 399.58 29.5707 399.048 30.1543C398.533 30.738 398.103 31.2358 397.76 31.6478C397.417 32.0426 397.245 32.3172 397.245 32.4717C397.245 32.6262 397.443 32.8751 397.837 33.2184C398.249 33.5617 398.756 34.0338 399.357 34.6346C399.957 35.2354 400.61 35.9821 401.314 36.8747C402.034 37.7502 402.695 38.8059 403.296 40.0418C403.897 41.2606 404.395 42.6682 404.79 44.2646C405.202 45.8439 405.408 47.6463 405.408 49.6718C405.408 50.0838 405.219 50.41 404.841 50.6503C404.481 50.8906 404.017 51.0794 403.451 51.2168C402.901 51.3369 402.309 51.4142 401.674 51.4485C401.039 51.4828 400.455 51.5 399.923 51.5ZM422.824 52.0665C420.163 52.0665 417.923 51.7232 416.104 51.0365C414.301 50.3327 412.842 49.3028 411.726 47.9467C410.61 46.5734 409.804 44.8654 409.306 42.8227C408.825 40.7628 408.585 38.3853 408.585 35.6903C408.585 32.5146 408.765 29.8453 409.126 27.6825C409.503 25.5196 410.207 23.7858 411.237 22.4812C412.267 21.1595 413.7 20.2153 415.537 19.6489C417.374 19.0824 419.76 18.7992 422.695 18.7992C425.51 18.7992 427.819 19.1253 429.622 19.7776C431.441 20.4127 432.875 21.4169 433.922 22.7902C434.969 24.1635 435.69 25.923 436.085 28.0687C436.479 30.2144 436.677 32.7979 436.677 35.819C436.677 38.5999 436.462 41.0117 436.033 43.0544C435.604 45.08 434.857 46.7622 433.793 48.1012C432.746 49.4401 431.33 50.4357 429.544 51.088C427.776 51.7403 425.536 52.0665 422.824 52.0665ZM422.36 40.7628C423.064 40.7628 423.717 40.6169 424.317 40.3251C424.935 40.0161 425.467 39.5955 425.914 39.0634C426.36 38.5141 426.703 37.8704 426.944 37.1322C427.201 36.3941 427.33 35.5959 427.33 34.7376C427.33 33.845 427.218 33.0039 426.995 32.2142C426.789 31.4074 426.48 30.7122 426.068 30.1286C425.656 29.5278 425.159 29.0557 424.575 28.7124C423.991 28.3519 423.322 28.1717 422.566 28.1717C421.846 28.1717 421.193 28.3433 420.61 28.6867C420.043 29.0128 419.562 29.4677 419.168 30.0513C418.79 30.635 418.498 31.3216 418.292 32.1112C418.086 32.9009 417.983 33.7506 417.983 34.6604C417.983 35.5015 418.069 36.2911 418.241 37.0292C418.43 37.7674 418.704 38.4197 419.065 38.9861C419.425 39.5354 419.88 39.9732 420.429 40.2993C420.979 40.6083 421.622 40.7628 422.36 40.7628Z" fill="white"/>
<defs>
<linearGradient id="paint0_linear_3767_8499" x1="58.758" y1="-41.6369" x2="59.4021" y2="58.2075" gradientUnits="userSpaceOnUse">
<stop stop-color="white"/>
<stop offset="0.9993" stop-color="#BDCDFF"/>
</linearGradient>
<linearGradient id="paint1_linear_3767_8499" x1="55.2938" y1="44.8993" x2="59.0565" y2="37.5038" gradientUnits="userSpaceOnUse">
<stop offset="0.0251" stop-color="#F5F8FF" stop-opacity="0"/>
<stop offset="0.7426" stop-color="#C9D7FF"/>
</linearGradient>
<linearGradient id="paint2_linear_3767_8499" x1="31.3004" y1="42.17" x2="31.8471" y2="59.6648" gradientUnits="userSpaceOnUse">
<stop offset="0.0251" stop-color="#F5F8FF"/>
<stop offset="0.7426" stop-color="#C9D7FF"/>
</linearGradient>
<radialGradient id="paint3_radial_3767_8499" cx="0" cy="0" r="1" gradientUnits="userSpaceOnUse" gradientTransform="translate(34.4596 22.098) scale(32.1508 29.5341)">
<stop offset="0.518" stop-color="white"/>
<stop offset="0.6614" stop-color="#C2D7F2"/>
</radialGradient>
<radialGradient id="paint4_radial_3767_8499" cx="0" cy="0" r="1" gradientUnits="userSpaceOnUse" gradientTransform="translate(46.3226 31.9665) scale(18.0989 18.0989)">
<stop offset="0.3105" stop-color="white"/>
<stop offset="0.8181" stop-color="#C2D7F2"/>
</radialGradient>
<linearGradient id="paint5_linear_3767_8499" x1="40.5001" y1="11.0611" x2="40.6142" y2="28.7446" gradientUnits="userSpaceOnUse">
<stop stop-color="white"/>
<stop offset="0.9993" stop-color="#BDCDFF"/>
</linearGradient>
<linearGradient id="paint6_linear_3767_8499" x1="24.3433" y1="11.6417" x2="24.238" y2="28.4844" gradientUnits="userSpaceOnUse">
<stop stop-color="white"/>
<stop offset="0.9993" stop-color="#BDCDFF"/>
</linearGradient>
<linearGradient id="paint7_linear_3767_8499" x1="22.8575" y1="22.4305" x2="18.5488" y2="14.4514" gradientUnits="userSpaceOnUse">
<stop offset="0.3381" stop-color="white"/>
<stop offset="0.8181" stop-color="#C2D7F2"/>
</linearGradient>
<linearGradient id="paint8_linear_3767_8499" x1="32.7658" y1="23.3461" x2="32.9651" y2="34.3076" gradientUnits="userSpaceOnUse">
<stop stop-color="white"/>
<stop offset="0.9993" stop-color="#B4C3F2"/>
</linearGradient>
<linearGradient id="paint9_linear_3767_8499" x1="40.6993" y1="24.1995" x2="46.992" y2="15.8092" gradientUnits="userSpaceOnUse">
<stop offset="0.4272" stop-color="#BD005B"/>
<stop offset="0.789" stop-color="#A3195B" stop-opacity="0"/>
</linearGradient>
<linearGradient id="paint10_linear_3767_8499" x1="24.9419" y1="24.1932" x2="18.667" y2="15.8584" gradientUnits="userSpaceOnUse">
<stop offset="0.4272" stop-color="#BD005B"/>
<stop offset="0.789" stop-color="#A3195B" stop-opacity="0"/>
</linearGradient>
<linearGradient id="paint11_linear_3767_8499" x1="42.0385" y1="29.0804" x2="41.2051" y2="34.0641" gradientUnits="userSpaceOnUse">
<stop stop-color="white"/>
<stop offset="0.9993" stop-color="#B4C3F2"/>
</linearGradient>
<linearGradient id="paint12_linear_3767_8499" x1="23.9708" y1="28.975" x2="24.6274" y2="33.985" gradientUnits="userSpaceOnUse">
<stop stop-color="white"/>
<stop offset="0.9993" stop-color="#B4C3F2"/>
</linearGradient>
<linearGradient id="paint13_linear_3767_8499" x1="33.0507" y1="45.5881" x2="33.222" y2="29.15" gradientUnits="userSpaceOnUse">
<stop offset="0.2241" stop-color="white"/>
<stop offset="0.9993" stop-color="#B4C3F2"/>
</linearGradient>
<clipPath id="clip0_3767_8499">
<rect x="1" y="1" width="66" height="66" rx="33" fill="white"/>
</clipPath>
</defs>
</svg>
